<svg width="260" height="261" viewBox="0 0 260 261" fill="none" xmlns="http://www.w3.org/2000/svg">
<g clip-path="url(#clip0)">
<path opacity="0.3" d="M229.859 224.282C224.516 229.901 219.472 233.52 215.476 236.381C168.565 270.023 113.054 260.214 101.254 257.821C83.8294 254.286 50.1503 247.452 25.8103 218.84C-11.0224 175.558 -5.28598 107.368 23.2837 62.3561C28.5054 54.1186 56.1206 8.42442 112.231 1.0939C146.19 -3.33807 185.774 5.60067 214.438 29.6025C274.609 79.9717 270.323 181.729 229.859 224.282Z" fill="url(#paint0_linear)"/>
<path d="M111.668 137.026C109.796 136.942 33.5855 172.407 30.1886 208.555C30.1886 208.555 7.09327 185.544 33.3516 158.663C59.6098 131.781 108.496 109.303 108.496 109.303L111.668 137.026Z" fill="url(#paint1_linear)"/>
<path d="M86.8227 218.541C87.1409 218.681 88.975 219.495 90.8653 218.821C102.263 214.773 78.9527 170.032 94.9079 124.619C101.412 106.105 111.64 95.4463 109.45 76.1569C109.048 72.6506 107.7 61.8793 100.457 51.3323C95.8999 44.703 92.4094 43.1229 86.2519 37.3632C66.8997 19.28 68.3221 4.05796 59.5163 3.12295C49.6905 2.07573 34.8582 19.6447 35.9905 35.7269C37.2351 53.4361 57.0552 58.3169 55.7544 73.6231C54.7531 85.5351 42.4943 85.7782 39.6214 100.065C35.8127 119.037 53.705 137.129 55.979 139.373C66.1511 149.406 69.9972 145.451 76.5571 153.024C94.4026 173.614 75.2095 213.398 86.8227 218.541Z" fill="url(#paint2_linear)"/>
<path d="M64.869 42.1972C66.3475 43.3192 67.7512 44.5254 69.0988 45.797C70.4463 47.0686 71.7471 48.387 72.9917 49.7708C74.2363 51.1546 75.4341 52.5759 76.5664 54.0532C77.6893 55.5399 78.7842 57.0452 79.7949 58.6161C80.3189 59.3921 80.7774 60.2056 81.2641 61.0004C81.7132 61.8232 82.1998 62.6179 82.621 63.4594C83.0514 64.2916 83.4912 65.1238 83.8749 65.9746C84.0714 66.3954 84.2867 66.8161 84.4738 67.2462L85.0166 68.5459C85.3909 69.4061 85.6903 70.3037 86.0272 71.1827C86.3454 72.0709 86.6168 72.9685 86.9069 73.8662C87.1502 74.7731 87.4216 75.6801 87.6368 76.5964L87.9456 77.9802C88.0485 78.4384 88.1515 78.9059 88.217 79.3734C88.872 83.0947 89.1153 86.9096 88.9095 90.6964L88.8346 92.1176L88.7223 93.4921L88.4884 96.2317C88.3293 98.055 88.1983 99.8876 88.0485 101.711C87.4871 109.023 87.0566 116.344 86.7571 123.665C86.1676 138.317 86.177 152.959 87.6649 167.545C88.3106 174.913 88.4884 182.29 88.4884 189.649C88.4696 197.017 88.2357 204.375 87.7678 211.715L87.3467 211.697C87.4122 204.347 87.2999 197.008 87.0566 189.668C86.9256 186.002 86.7478 182.337 86.5045 178.681C86.2612 175.025 85.9711 171.379 85.55 167.751C84.6142 160.458 84.0901 153.053 83.8281 145.685C83.6035 138.307 83.6597 130.93 83.8656 123.553C84.0714 116.185 84.5206 108.826 85.0446 101.477C85.185 99.6445 85.3067 97.8025 85.4658 95.9699L85.6903 93.221L85.8026 91.8465L85.8869 90.5188C86.1114 86.9657 85.9149 83.3939 85.3254 79.8783C85.2037 78.9994 84.9979 78.1205 84.8388 77.2509C84.6516 76.3813 84.4177 75.5118 84.2118 74.6422C83.9498 73.782 83.7252 72.9218 83.4444 72.0709C83.145 71.2294 82.8923 70.3692 82.5461 69.537C81.2828 66.1803 79.7481 62.8984 77.9233 59.7755C77.0436 58.1953 76.0611 56.6712 75.0598 55.1565C74.0304 53.6605 72.9823 52.1738 71.8687 50.7339C69.6322 47.8634 67.2459 45.0771 64.6163 42.5338L64.869 42.1972Z" fill="url(#paint3_linear)"/>
<path d="M92.5965 237.868C94.1311 238.672 96.5829 238.943 98.1083 237.821C103.994 233.511 88.8626 213.885 84.6048 186.096C79.6732 153.913 93.579 138.504 81.002 123.375C74.9568 116.101 69.7725 117.288 64.1671 108.116C56.3626 95.3434 62.5856 86.7694 56.3533 76.7927C49.1851 65.3201 29.8143 58.8405 16.629 65.2827C-1.10426 73.9316 -2.90098 103.618 6.56922 118.99C12.7267 128.976 24.4335 134.221 23.0579 137.045C21.7477 139.738 11.5476 134.016 5.80188 138.466C-1.72188 144.291 0.0748389 166.274 11.164 173.96C21.3734 181.028 38.4142 175.259 39.219 178.709C39.5371 180.065 36.8982 180.963 36.8046 182.683C36.6268 185.75 44.5998 190.07 73.3472 196.222C81.133 201.187 84.6516 206.545 86.4202 210.593C91.6419 222.543 86.7384 234.801 92.5965 237.868Z" fill="url(#paint4_linear)"/>
<path d="M31.9385 88.6674C32.1444 95.3808 32.9772 102.047 34.6055 108.49C36.2244 114.941 38.6294 121.14 41.783 126.947C43.3738 129.845 45.1144 132.669 46.9579 135.437C47.9031 136.811 48.8295 138.195 49.8121 139.542C50.7666 140.907 51.7398 142.272 52.7224 143.637L58.6272 151.828L60.0964 153.894L61.5282 155.988C62.4921 157.372 63.4185 158.794 64.3543 160.205C66.2259 163.02 68.0226 165.89 69.7819 168.779C70.6522 170.229 71.5318 171.678 72.3553 173.155L73.6186 175.362L74.8445 177.578L76.0704 179.803L77.2495 182.047L78.4286 184.291L79.5702 186.554L80.6932 188.826L81.7881 191.117C82.5086 192.65 83.2292 194.174 83.903 195.727L84.923 198.045L85.4376 199.205L85.9149 200.383C86.5419 201.954 87.1876 203.515 87.7958 205.095L89.5551 209.855C90.126 211.444 90.6313 213.062 91.1647 214.67C93.2047 221.112 94.8611 227.685 95.9279 234.343L95.5629 234.417C93.9346 227.891 91.904 221.505 89.5458 215.231L88.6381 212.893C88.3292 212.117 88.0579 211.323 87.721 210.556L85.7839 205.928C84.4176 202.87 83.0514 199.822 81.5822 196.811C80.8803 195.296 80.113 193.81 79.355 192.314L78.2227 190.079L77.0436 187.863L75.8739 185.647L74.6667 183.45L73.4502 181.253L72.1962 179.074C68.8461 173.286 65.3556 167.573 61.6311 162.019C57.9067 156.465 53.9951 151.033 50.0928 145.535C49.1196 144.161 48.137 142.786 47.1919 141.384C46.228 139.99 45.3203 138.56 44.3845 137.139C42.5691 134.259 40.8285 131.323 39.2751 128.275C38.8914 127.508 38.5452 126.723 38.1708 125.956L37.6281 124.796L37.1415 123.609C36.8233 122.814 36.4771 122.029 36.1776 121.234L35.3167 118.822C35.0079 118.027 34.7926 117.195 34.5493 116.381L34.1844 115.156C34.0627 114.745 33.9411 114.343 33.8475 113.922C33.4545 112.258 33.024 110.612 32.7152 108.939C31.4519 102.253 31.0495 95.4182 31.5642 88.6861L31.9385 88.6674Z" fill="url(#paint5_linear)"/>
<path d="M216.168 95.4744L217.927 109.032C218.17 110.93 216.795 117.578 218.629 118.102C223.233 119.429 234.706 115.502 239.89 107.433C245.158 99.2144 244.84 76.1196 233.835 74.7825C229.933 74.3056 235.314 84.3944 219.237 90.3505C217.141 91.1172 215.878 93.2584 216.168 95.4744Z" fill="url(#paint6_linear)"/>
<path d="M77.4554 30.0233L207.24 29.5184C214.399 29.4903 220.323 35.0723 220.716 42.2159L231.028 230.182C231.337 235.773 226.948 240.504 221.343 240.626L72.6173 243.908C67.3582 244.02 63.0161 239.803 62.9974 234.539L62.2581 45.3295C62.2207 36.9143 69.0333 30.0607 77.4554 30.0233Z" fill="url(#paint7_linear)"/>
<path d="M94.337 240.589L77.6893 240.439C72.1494 240.392 67.6202 235.839 67.6015 230.303L67.4986 205.198C67.4986 205.03 67.6389 204.89 67.8074 204.88C67.9758 204.88 68.1162 205.021 68.1162 205.189L68.2191 230.294C68.2378 235.493 72.4863 239.756 77.6893 239.803L94.337 239.953C94.5054 239.953 94.6458 240.093 94.6458 240.271C94.6552 240.448 94.5148 240.589 94.337 240.589Z" fill="white"/>
<path d="M67.7886 197.728C67.6202 197.728 67.4798 197.587 67.4798 197.419L67.4611 193.352C67.4611 193.183 67.6015 193.043 67.7699 193.034C67.9384 193.034 68.0787 193.174 68.0787 193.342L68.0974 197.41C68.0974 197.587 67.9571 197.728 67.7886 197.728Z" fill="white"/>
<path d="M77.8484 28.4992C95.5816 30.8274 156.558 38.0177 206.931 33.9597C209.224 33.7727 211.227 35.5025 211.358 37.8026L222.138 226.601C222.288 229.191 220.313 231.416 217.721 231.575C196.535 232.912 109.272 238.092 78.1291 234.96C76.2295 234.773 74.7884 233.183 74.7697 231.276L72.8419 32.9405C72.8139 30.2477 75.1814 28.1532 77.8484 28.4992Z" fill="url(#paint8_linear)"/>
<path opacity="0.6" d="M79.7668 33.3893C96.8356 35.6333 155.51 42.5525 203.984 38.6441C206.192 38.4664 208.12 40.1308 208.251 42.3468L218.629 224.039C218.769 226.526 216.879 228.667 214.38 228.826C193.989 230.107 110.021 235.1 80.0475 232.08C78.2227 231.893 76.8378 230.369 76.819 228.536L74.9475 37.6623C74.9194 35.0723 77.1934 33.0527 79.7668 33.3893Z" fill="white"/>
<g opacity="0.6">
<path opacity="0.6" d="M198.724 74.6328C199.417 74.6328 199.932 74.0625 199.885 73.3799L199.875 73.2583C199.829 72.5758 199.23 72.0054 198.537 72.0054L88.3386 71.5753C87.6461 71.5753 87.4402 72.0054 87.8707 72.5477L89.1059 74.0905C89.5364 74.6235 90.4535 75.063 91.1366 75.063L198.724 74.6328Z" fill="white"/>
</g>
<g opacity="0.6">
<path opacity="0.6" d="M88.3667 78.8404C87.6742 78.8404 87.4684 79.2705 87.8988 79.8128L89.1341 81.3556C89.5645 81.8885 90.4816 82.328 91.1647 82.328L198.743 81.9072C199.436 81.9072 199.95 81.3369 199.904 80.6543L199.894 80.5328C199.847 79.8502 199.249 79.2798 198.556 79.2798L88.3667 78.8404Z" fill="white"/>
</g>
<path d="M96.2648 98.3635C96.2554 98.3635 96.2554 98.3635 96.2648 98.3635L92.1099 98.3355C91.4361 98.3355 90.884 97.868 90.8185 97.2602L90.4442 93.782C90.4161 93.5389 90.491 93.2958 90.6594 93.0994C90.8372 92.8844 91.1086 92.7535 91.3987 92.7254C91.7449 92.6973 92.2315 92.6599 92.7556 92.6132C93.9159 92.5103 95.226 92.3981 95.9934 92.3794C96.611 92.3701 97.1538 92.7441 97.3128 93.2958C97.5374 94.1092 97.5281 95.6333 97.4906 97.2602C97.4626 97.868 96.9198 98.3635 96.2648 98.3635ZM91.4361 93.3519C91.3145 93.3612 91.2022 93.4173 91.1273 93.5015C91.0899 93.5482 91.0431 93.623 91.0618 93.7165L91.4361 97.1948C91.4642 97.494 91.7543 97.7184 92.1099 97.7184L96.2554 97.7464C96.5736 97.7464 96.845 97.5314 96.845 97.2602C96.873 96.0727 96.9105 94.2775 96.6859 93.4734C96.611 93.2023 96.3303 93.0059 95.984 93.0153C95.2354 93.0246 93.8785 93.1462 92.7836 93.249C92.269 93.2771 91.7824 93.3238 91.4361 93.3519Z" fill="white"/>
<g opacity="0.6">
<path opacity="0.6" d="M100.803 94.586C100.111 94.586 99.6804 95.0535 99.8301 95.6239C99.9799 96.1942 100.672 96.6524 101.355 96.643L137.833 96.1194C138.516 96.1101 139.077 95.7548 139.058 95.3247C139.04 94.8946 138.478 94.5486 137.786 94.5486L100.803 94.586Z" fill="white"/>
</g>
<path d="M92.0443 94.0998C92.3532 93.9222 92.7462 94.025 92.924 94.3336L93.7475 95.7922C93.8317 95.9418 94.0469 95.9325 94.1124 95.7735L96.1244 91.248C96.2273 91.0236 96.5642 91.0984 96.5549 91.3415C96.5361 92.7254 96.1805 95.3434 93.9814 97.5501C93.9814 97.5501 92.7649 97.0825 91.773 94.932C91.642 94.6422 91.7542 94.2682 92.0443 94.0998Z" fill="url(#paint9_linear)"/>
<path d="M96.2928 107.246L92.1379 107.218C91.4642 107.218 90.912 106.751 90.8465 106.143L90.4722 102.665C90.4441 102.421 90.519 102.178 90.6874 101.982C90.8652 101.767 91.1366 101.636 91.4267 101.608C91.773 101.58 92.2596 101.543 92.7836 101.496C93.944 101.393 95.2541 101.281 96.0214 101.262C96.6391 101.253 97.1818 101.627 97.3409 102.178C97.5655 102.992 97.5561 104.516 97.5187 106.143C97.5 106.751 96.9572 107.246 96.2928 107.246ZM91.4642 102.234C91.3425 102.244 91.2302 102.3 91.1553 102.384C91.1179 102.431 91.0711 102.506 91.0898 102.599L91.4642 106.077C91.4922 106.377 91.7823 106.601 92.1379 106.601L96.2835 106.629C96.611 106.638 96.873 106.414 96.8824 106.143C96.9104 104.955 96.9479 103.16 96.7233 102.356C96.6484 102.085 96.3677 101.879 96.0214 101.898C95.2728 101.907 93.9159 102.029 92.8211 102.132C92.3064 102.16 91.8198 102.206 91.4642 102.234Z" fill="white"/>
<path opacity="0.6" d="M91.9039 102.44C92.7742 102.375 94.6645 102.178 95.5629 102.16C95.9466 102.15 96.2741 102.384 96.3677 102.711C96.5455 103.347 96.5268 104.628 96.4987 105.806C96.4893 106.162 96.1712 106.442 95.7688 106.442L92.4561 106.423C92.0443 106.423 91.7074 106.143 91.67 105.788L91.3705 103.011C91.3425 102.711 91.5764 102.459 91.9039 102.44Z" fill="white"/>
<g opacity="0.6">
<path opacity="0.6" d="M100.841 103.469C100.148 103.469 99.7178 103.936 99.8675 104.507C100.017 105.077 100.71 105.535 101.393 105.526L137.87 105.002C138.553 104.993 139.115 104.637 139.096 104.207C139.077 103.777 138.516 103.431 137.823 103.431L100.841 103.469Z" fill="white"/>
</g>
<path d="M96.3302 116.119L92.1753 116.091C91.5016 116.091 90.9495 115.624 90.884 115.016L90.5096 111.538C90.4816 111.295 90.5564 111.052 90.7249 110.855C90.9027 110.64 91.1741 110.509 91.4641 110.481C91.8104 110.453 92.297 110.416 92.821 110.369C93.9814 110.266 95.2915 110.154 96.0589 110.135C96.6858 110.126 97.2192 110.5 97.3783 111.052C97.6029 111.865 97.5936 113.389 97.5561 115.016C97.5374 115.633 96.9853 116.119 96.3302 116.119ZM91.5016 111.117C91.3799 111.126 91.2676 111.183 91.1928 111.267C91.1553 111.313 91.1085 111.388 91.1273 111.482L91.5016 114.96C91.5296 115.259 91.8197 115.484 92.1753 115.484L96.3209 115.512C96.6391 115.512 96.9104 115.297 96.9104 115.025C96.9385 113.838 96.9759 112.043 96.7514 111.239C96.6765 110.968 96.3958 110.771 96.0495 110.781C95.3009 110.79 93.944 110.911 92.8585 111.014C92.3344 111.042 91.8572 111.089 91.5016 111.117Z" fill="white"/>
<path opacity="0.6" d="M91.9414 111.323C92.8117 111.257 94.702 111.061 95.6004 111.042C95.9841 111.033 96.3116 111.267 96.4052 111.594C96.583 112.23 96.5642 113.511 96.5362 114.689C96.5268 115.044 96.2086 115.325 95.8063 115.325L92.4935 115.306C92.0818 115.306 91.7449 115.025 91.7075 114.67L91.408 111.893C91.3799 111.594 91.6139 111.342 91.9414 111.323Z" fill="white"/>
<g opacity="0.6">
<path opacity="0.6" d="M100.869 112.351C100.176 112.351 99.7459 112.819 99.8956 113.389C100.045 113.96 100.738 114.418 101.421 114.408L137.898 113.885C138.581 113.875 139.143 113.52 139.124 113.09C139.115 112.669 138.544 112.314 137.851 112.314L100.869 112.351Z" fill="white"/>
</g>
<path d="M96.3677 125.002C96.3677 125.002 96.3583 125.002 96.3677 125.002L92.2128 124.974C91.539 124.974 90.9869 124.507 90.9214 123.899L90.5471 120.421C90.519 120.177 90.5939 119.934 90.7623 119.738C90.9401 119.523 91.2115 119.392 91.5016 119.364C91.8478 119.336 92.3251 119.298 92.8585 119.252C94.0189 119.149 95.329 119.027 96.1057 119.018C96.7233 119.009 97.266 119.383 97.4251 119.934C97.6497 120.748 97.6404 122.272 97.6029 123.899C97.5655 124.516 97.0227 125.002 96.3677 125.002ZM96.115 119.654H96.1057C95.357 119.663 94.0001 119.785 92.9053 119.888C92.3719 119.934 91.8946 119.981 91.539 120C91.4174 120.009 91.3051 120.065 91.2302 120.149C91.1928 120.196 91.146 120.271 91.1647 120.364L91.539 123.843C91.5671 124.142 91.8572 124.366 92.2128 124.366L96.3583 124.394C96.6765 124.394 96.9479 124.179 96.9479 123.908C96.9759 122.721 97.0134 120.925 96.7888 120.121C96.7326 119.841 96.4425 119.654 96.115 119.654Z" fill="white"/>
<path opacity="0.6" d="M91.9695 120.196C92.8398 120.131 94.7301 119.934 95.6284 119.916C96.0121 119.906 96.3396 120.14 96.4332 120.467C96.611 121.103 96.5923 122.384 96.5642 123.562C96.5548 123.917 96.2367 124.198 95.8343 124.198L92.5216 124.179C92.1099 124.179 91.773 123.899 91.7355 123.543L91.4361 120.766C91.408 120.477 91.6513 120.224 91.9695 120.196Z" fill="white"/>
<g opacity="0.6">
<path opacity="0.6" d="M100.906 121.234C100.214 121.234 99.7833 121.701 99.9331 122.272C100.083 122.842 100.775 123.3 101.458 123.291L137.936 122.767C138.619 122.758 139.18 122.403 139.161 121.973C139.143 121.543 138.581 121.197 137.889 121.197L100.906 121.234Z" fill="white"/>
</g>
<path d="M156.165 97.1293L152.01 97.1012C151.336 97.1012 150.784 96.6337 150.718 96.026L150.344 92.5477C150.316 92.3046 150.391 92.0615 150.559 91.8651C150.737 91.6501 151.009 91.5192 151.299 91.4911C151.645 91.4631 152.122 91.4257 152.656 91.3789C153.816 91.2761 155.126 91.1545 155.903 91.1452C156.52 91.1265 157.063 91.5098 157.222 92.0615C157.447 92.875 157.437 94.399 157.4 96.026C157.372 96.6337 156.82 97.1293 156.165 97.1293ZM155.912 91.7716H155.903C155.154 91.781 153.797 91.9025 152.702 92.0054C152.169 92.0522 151.692 92.0989 151.336 92.1176C151.214 92.127 151.102 92.1831 151.027 92.2672C150.99 92.314 150.943 92.3888 150.962 92.4823L151.336 95.9605C151.364 96.2597 151.654 96.4841 152.01 96.4841L156.155 96.5122C156.474 96.5122 156.745 96.2971 156.745 96.026C156.773 94.8385 156.81 93.0433 156.586 92.2392C156.53 91.9586 156.24 91.7716 155.912 91.7716Z" fill="white"/>
<g opacity="0.6">
<path opacity="0.6" d="M160.703 93.3518C160.011 93.3518 159.58 93.8193 159.73 94.3897C159.88 94.96 160.572 95.4182 161.255 95.4088L197.733 94.8852C198.416 94.8759 198.977 94.5206 198.958 94.0905C198.949 93.6697 198.378 93.3144 197.686 93.3144L160.703 93.3518Z" fill="white"/>
</g>
<path d="M156.202 106.003C156.202 106.003 156.193 106.003 156.202 106.003L152.047 105.975C151.374 105.975 150.821 105.507 150.756 104.899L150.382 101.421C150.354 101.178 150.428 100.935 150.597 100.738C150.775 100.523 151.046 100.392 151.336 100.364C151.682 100.336 152.169 100.299 152.693 100.252C153.853 100.149 155.163 100.037 155.931 100.018C156.548 100.009 157.091 100.383 157.25 100.935C157.475 101.748 157.465 103.272 157.428 104.899C157.4 105.516 156.857 106.003 156.202 106.003ZM151.374 101C151.252 101.01 151.14 101.066 151.065 101.15C151.027 101.197 150.98 101.271 150.999 101.365L151.374 104.843C151.402 105.142 151.692 105.367 152.047 105.367L156.193 105.395C156.511 105.395 156.782 105.18 156.782 104.909C156.81 103.721 156.848 101.926 156.623 101.122C156.548 100.851 156.258 100.664 155.931 100.664H155.921C155.173 100.673 153.816 100.795 152.721 100.897C152.206 100.925 151.72 100.972 151.374 101Z" fill="white"/>
<g opacity="0.6">
<path opacity="0.6" d="M160.741 102.234C160.048 102.234 159.618 102.702 159.767 103.272C159.917 103.843 160.61 104.301 161.293 104.292L197.77 103.768C198.453 103.759 199.015 103.403 198.996 102.973C198.987 102.552 198.416 102.197 197.723 102.197L160.741 102.234Z" fill="white"/>
</g>
<path d="M156.24 114.885C156.23 114.885 156.23 114.885 156.24 114.885L152.085 114.857C151.411 114.857 150.859 114.39 150.793 113.782L150.419 110.304C150.391 110.061 150.466 109.817 150.634 109.621C150.812 109.406 151.083 109.275 151.373 109.247C151.72 109.219 152.206 109.182 152.73 109.135C153.891 109.032 155.201 108.92 155.968 108.901C156.586 108.892 157.129 109.266 157.288 109.817C157.512 110.631 157.503 112.155 157.465 113.782C157.437 114.399 156.895 114.885 156.24 114.885ZM155.987 109.537H155.978C155.229 109.546 153.872 109.668 152.777 109.771C152.244 109.817 151.757 109.864 151.411 109.883C151.289 109.892 151.177 109.948 151.102 110.032C151.065 110.079 151.018 110.154 151.037 110.248L151.411 113.726C151.439 114.025 151.729 114.249 152.085 114.249L156.23 114.277C156.548 114.277 156.82 114.062 156.82 113.791C156.848 112.604 156.885 110.809 156.661 110.004C156.595 109.724 156.305 109.537 155.987 109.537Z" fill="white"/>
<g opacity="0.6">
<path opacity="0.6" d="M160.778 111.117C160.086 111.117 159.655 111.585 159.805 112.155C159.955 112.725 160.647 113.183 161.33 113.174L197.807 112.651C198.491 112.641 199.052 112.286 199.033 111.856C199.015 111.426 198.453 111.08 197.761 111.08L160.778 111.117Z" fill="white"/>
</g>
<path d="M156.268 123.768L152.113 123.74C151.439 123.74 150.887 123.272 150.821 122.665L150.447 119.186C150.419 118.943 150.494 118.7 150.662 118.504C150.84 118.289 151.111 118.158 151.402 118.13C151.748 118.102 152.234 118.064 152.758 118.018C153.919 117.915 155.229 117.802 155.996 117.784C156.623 117.784 157.157 118.148 157.316 118.7C157.54 119.514 157.531 121.038 157.494 122.665C157.475 123.282 156.932 123.768 156.268 123.768ZM156.015 118.42H156.006C155.257 118.429 153.9 118.55 152.815 118.653C152.281 118.7 151.795 118.747 151.448 118.766C151.327 118.775 151.214 118.831 151.14 118.915C151.102 118.962 151.055 119.037 151.074 119.13L151.448 122.608C151.476 122.908 151.766 123.132 152.122 123.132L156.268 123.16C156.586 123.16 156.857 122.945 156.857 122.674C156.885 121.486 156.923 119.691 156.698 118.887C156.633 118.607 156.342 118.42 156.015 118.42Z" fill="white"/>
<g opacity="0.6">
<path opacity="0.6" d="M160.816 120C160.123 120 159.693 120.467 159.842 121.038C159.992 121.608 160.685 122.066 161.368 122.057L197.845 121.533C198.528 121.524 199.089 121.169 199.071 120.738C199.061 120.318 198.491 119.962 197.798 119.962L160.816 120Z" fill="white"/>
</g>
<path d="M97.7901 141.477L93.6352 141.449C92.9614 141.449 92.4093 140.981 92.3438 140.374L91.9695 136.895C91.9414 136.652 92.0162 136.409 92.1847 136.213C92.3625 135.998 92.6339 135.867 92.924 135.839C93.2702 135.811 93.7475 135.773 94.2809 135.727C95.4412 135.624 96.7513 135.502 97.5281 135.493C98.155 135.493 98.6884 135.858 98.8475 136.409C99.0721 137.223 99.0628 138.747 99.0253 140.374C98.9972 140.991 98.4545 141.477 97.7901 141.477ZM97.5374 136.119H97.5281C96.7794 136.129 95.4225 136.25 94.3276 136.353C93.7942 136.4 93.317 136.447 92.9614 136.465C92.8397 136.475 92.7274 136.531 92.6526 136.615C92.6151 136.662 92.5684 136.737 92.5871 136.83L92.9614 140.308C92.9895 140.607 93.2796 140.832 93.6352 140.832L97.7807 140.86C98.0989 140.86 98.3703 140.645 98.3703 140.374C98.3983 139.186 98.4358 137.391 98.2112 136.587C98.155 136.316 97.8649 136.119 97.5374 136.119Z" fill="white"/>
<g opacity="0.6">
<path opacity="0.6" d="M102.338 137.7C101.646 137.7 101.215 138.167 101.365 138.737C101.515 139.308 102.207 139.766 102.89 139.757L139.367 139.233C140.05 139.224 140.612 138.868 140.593 138.438C140.584 138.017 140.013 137.662 139.32 137.662L102.338 137.7Z" fill="white"/>
</g>
<path d="M97.8275 150.36L93.6726 150.332C92.9988 150.332 92.4467 149.864 92.3812 149.256L92.0069 145.778C91.9788 145.535 92.0537 145.292 92.2221 145.096C92.3999 144.88 92.6713 144.75 92.9614 144.722C93.3076 144.693 93.7942 144.656 94.3183 144.609C95.4787 144.506 96.7888 144.394 97.5561 144.376C98.1831 144.366 98.7165 144.74 98.8756 145.292C99.1002 146.105 99.0908 147.629 99.0534 149.256C99.0347 149.864 98.4826 150.36 97.8275 150.36ZM92.9988 145.348C92.8772 145.357 92.7649 145.413 92.69 145.498C92.6526 145.544 92.6058 145.619 92.6245 145.713L92.9988 149.191C93.0269 149.49 93.317 149.714 93.6726 149.714L97.8182 149.742C98.1363 149.742 98.4077 149.527 98.4077 149.256C98.4358 148.069 98.4732 146.274 98.2486 145.47C98.1738 145.198 97.893 145.002 97.5468 145.011C96.7981 145.021 95.4412 145.142 94.3464 145.245C93.8317 145.283 93.3451 145.32 92.9988 145.348Z" fill="white"/>
<g opacity="0.6">
<path opacity="0.6" d="M102.366 146.582C101.674 146.582 101.243 147.05 101.393 147.62C101.543 148.19 102.235 148.649 102.918 148.639L139.395 148.116C140.078 148.106 140.64 147.751 140.621 147.321C140.612 146.9 140.041 146.545 139.349 146.545L102.366 146.582Z" fill="white"/>
</g>
<path d="M97.8649 159.242C97.8556 159.242 97.8556 159.242 97.8649 159.242L93.7101 159.214C93.0363 159.214 92.4842 158.747 92.4187 158.139L92.0443 154.661C92.0163 154.418 92.0911 154.174 92.2596 153.978C92.4374 153.763 92.7088 153.632 92.9989 153.604C93.3451 153.576 93.8317 153.539 94.3557 153.492C95.5161 153.389 96.8262 153.277 97.5936 153.258C98.2112 153.249 98.7539 153.623 98.913 154.174C99.1376 154.988 99.1283 156.512 99.0908 158.139C99.0628 158.747 98.52 159.242 97.8649 159.242ZM97.6123 153.885H97.6029C96.8543 153.894 95.4974 154.016 94.4025 154.118C93.8691 154.165 93.3825 154.212 93.0363 154.231C92.9146 154.24 92.8023 154.296 92.7275 154.38C92.69 154.427 92.6433 154.502 92.662 154.595L93.0363 158.074C93.0644 158.363 93.3638 158.597 93.7101 158.597L97.8556 158.625C98.1737 158.625 98.4451 158.41 98.4451 158.139C98.4732 156.952 98.5106 155.156 98.2861 154.352C98.2299 154.081 97.9398 153.885 97.6123 153.885Z" fill="white"/>
<g opacity="0.6">
<path opacity="0.6" d="M102.404 155.465C101.711 155.465 101.281 155.932 101.43 156.503C101.58 157.073 102.273 157.531 102.956 157.522L139.433 156.998C140.116 156.989 140.677 156.634 140.659 156.203C140.64 155.773 140.078 155.427 139.386 155.427L102.404 155.465Z" fill="white"/>
</g>
<path d="M97.893 168.125L93.7381 168.097C93.0643 168.097 92.5122 167.629 92.4467 167.022L92.0724 163.543C92.0443 163.3 92.1192 163.057 92.2876 162.861C92.4654 162.646 92.7368 162.515 93.0269 162.487C93.3731 162.459 93.8598 162.421 94.3838 162.375C95.5442 162.272 96.8543 162.16 97.6216 162.141C98.2393 162.122 98.782 162.506 98.9411 163.057C99.1657 163.871 99.1563 165.395 99.1189 167.022C99.1002 167.629 98.5574 168.125 97.893 168.125ZM97.6497 162.767H97.6404C96.8917 162.777 95.5348 162.898 94.4399 163.001C93.9065 163.048 93.4199 163.095 93.0737 163.113C92.952 163.123 92.8397 163.179 92.7649 163.263C92.7274 163.31 92.6806 163.384 92.6994 163.478L93.0737 166.956C93.1018 167.255 93.3919 167.48 93.7475 167.48L97.893 167.508C98.2112 167.508 98.4826 167.293 98.4826 167.022C98.5107 165.834 98.5481 164.039 98.3235 163.235C98.258 162.964 97.9679 162.767 97.6497 162.767Z" fill="white"/>
<g opacity="0.6">
<path opacity="0.6" d="M102.441 164.347C101.748 164.347 101.318 164.815 101.468 165.385C101.617 165.956 102.31 166.414 102.993 166.405L139.47 165.881C140.153 165.872 140.715 165.516 140.696 165.086C140.677 164.656 140.116 164.31 139.423 164.31L102.441 164.347Z" fill="white"/>
</g>
<path d="M157.699 140.243C157.69 140.243 157.69 140.243 157.699 140.243L153.544 140.215C152.871 140.215 152.319 139.747 152.253 139.14L151.879 135.661C151.851 135.418 151.926 135.175 152.094 134.979C152.272 134.764 152.543 134.633 152.833 134.605C153.179 134.577 153.666 134.539 154.19 134.492C155.351 134.39 156.661 134.277 157.428 134.259C158.046 134.24 158.588 134.623 158.747 135.175C158.972 135.988 158.963 137.513 158.925 139.14C158.897 139.747 158.354 140.243 157.699 140.243ZM157.447 134.885H157.437C156.689 134.895 155.332 135.016 154.246 135.119C153.713 135.166 153.226 135.212 152.88 135.231C152.758 135.24 152.646 135.297 152.571 135.381C152.534 135.427 152.487 135.502 152.506 135.596L152.88 139.074C152.908 139.373 153.198 139.598 153.554 139.598L157.699 139.626C158.018 139.626 158.289 139.411 158.298 139.14C158.326 137.952 158.364 136.157 158.139 135.353C158.055 135.082 157.774 134.885 157.447 134.885Z" fill="white"/>
<g opacity="0.6">
<path opacity="0.6" d="M162.238 136.465C161.546 136.465 161.115 136.933 161.265 137.503C161.415 138.074 162.107 138.532 162.79 138.522L199.267 137.999C199.95 137.989 200.512 137.634 200.493 137.204C200.474 136.774 199.913 136.428 199.22 136.428L162.238 136.465Z" fill="white"/>
</g>
<path d="M157.728 149.125L153.573 149.097C152.899 149.097 152.347 148.63 152.281 148.022L151.907 144.544C151.879 144.301 151.954 144.058 152.122 143.861C152.3 143.646 152.571 143.515 152.861 143.487C153.208 143.459 153.685 143.422 154.218 143.375C155.379 143.272 156.689 143.151 157.465 143.141C158.092 143.132 158.626 143.506 158.785 144.058C159.01 144.871 159 146.395 158.963 148.022C158.935 148.63 158.392 149.125 157.728 149.125ZM157.484 143.768H157.475C156.726 143.777 155.369 143.899 154.274 144.002C153.741 144.048 153.264 144.095 152.908 144.114C152.787 144.123 152.674 144.179 152.599 144.263C152.562 144.31 152.515 144.385 152.534 144.478L152.908 147.957C152.936 148.256 153.226 148.48 153.582 148.48L157.728 148.508C158.046 148.508 158.317 148.293 158.317 148.022C158.345 146.835 158.383 145.039 158.158 144.235C158.092 143.964 157.802 143.768 157.484 143.768Z" fill="white"/>
<g opacity="0.6">
<path opacity="0.6" d="M162.275 145.348C161.583 145.348 161.153 145.815 161.302 146.386C161.452 146.956 162.144 147.414 162.828 147.405L199.305 146.881C199.988 146.872 200.549 146.517 200.531 146.087C200.521 145.666 199.95 145.311 199.258 145.311L162.275 145.348Z" fill="white"/>
</g>
<path d="M157.765 158.008L153.61 157.98C152.936 157.98 152.384 157.513 152.319 156.905L151.944 153.426C151.916 153.183 151.991 152.94 152.16 152.744C152.337 152.529 152.609 152.398 152.899 152.37C153.245 152.342 153.732 152.304 154.256 152.258C155.416 152.155 156.726 152.043 157.494 152.024C158.13 152.015 158.654 152.389 158.813 152.94C159.038 153.754 159.028 155.278 158.991 156.905C158.972 157.513 158.42 158.008 157.765 158.008ZM152.936 152.996C152.815 153.006 152.702 153.062 152.627 153.146C152.59 153.193 152.543 153.268 152.562 153.361L152.936 156.839C152.964 157.139 153.254 157.363 153.61 157.363L157.756 157.391C158.074 157.391 158.345 157.176 158.345 156.905C158.373 155.717 158.411 153.922 158.186 153.118C158.111 152.847 157.83 152.641 157.484 152.66C156.736 152.669 155.379 152.791 154.284 152.894C153.769 152.931 153.292 152.968 152.936 152.996Z" fill="white"/>
<g opacity="0.6">
<path opacity="0.6" d="M162.304 154.231C161.611 154.231 161.181 154.698 161.33 155.269C161.48 155.839 162.172 156.297 162.856 156.288L199.333 155.764C200.016 155.755 200.577 155.399 200.559 154.969C200.54 154.539 199.978 154.193 199.286 154.193L162.304 154.231Z" fill="white"/>
</g>
<path d="M157.802 166.891C157.802 166.891 157.793 166.891 157.802 166.891L153.647 166.863C152.974 166.863 152.422 166.395 152.356 165.787L151.982 162.309C151.954 162.066 152.029 161.823 152.197 161.627C152.375 161.412 152.646 161.281 152.936 161.253C153.282 161.225 153.769 161.187 154.293 161.14C155.454 161.038 156.764 160.925 157.531 160.907C158.158 160.897 158.691 161.271 158.85 161.823C159.075 162.636 159.066 164.16 159.028 165.787C159 166.395 158.457 166.891 157.802 166.891ZM152.974 161.879C152.852 161.888 152.74 161.945 152.665 162.029C152.627 162.075 152.581 162.15 152.599 162.244L152.974 165.722C153.002 166.012 153.301 166.246 153.647 166.246L157.793 166.274C158.111 166.274 158.383 166.059 158.383 165.787C158.411 164.6 158.448 162.805 158.223 162.001C158.149 161.729 157.868 161.533 157.522 161.542C156.773 161.552 155.416 161.673 154.321 161.776C153.807 161.814 153.32 161.851 152.974 161.879Z" fill="white"/>
<g opacity="0.6">
<path opacity="0.6" d="M162.341 163.113C161.648 163.113 161.218 163.581 161.368 164.151C161.517 164.722 162.21 165.18 162.893 165.17L199.37 164.647C200.053 164.637 200.615 164.282 200.596 163.852C200.577 163.422 200.016 163.076 199.323 163.076L162.341 163.113Z" fill="white"/>
</g>
<path d="M99.3248 184.6C99.3248 184.6 99.3154 184.6 99.3248 184.6L95.1699 184.572C94.4961 184.572 93.944 184.104 93.8785 183.497L93.5042 180.018C93.4761 179.775 93.551 179.532 93.7194 179.336C93.8972 179.121 94.1686 178.99 94.4587 178.962C94.8049 178.934 95.2915 178.896 95.8156 178.85C96.976 178.747 98.2861 178.625 99.0534 178.616C99.671 178.597 100.214 178.98 100.373 179.532C100.597 180.346 100.588 181.87 100.551 183.497C100.532 184.104 99.9798 184.6 99.3248 184.6ZM99.0721 179.242H99.0628C98.3141 179.252 96.9572 179.373 95.8624 179.476C95.329 179.523 94.8424 179.57 94.4961 179.588C94.3745 179.598 94.2622 179.654 94.1873 179.738C94.1499 179.785 94.1031 179.859 94.1218 179.953L94.4961 183.431C94.5242 183.73 94.8143 183.955 95.1699 183.955L99.3154 183.983C99.6336 183.983 99.905 183.768 99.905 183.497C99.933 182.309 99.9705 180.514 99.7459 179.71C99.6897 179.429 99.3996 179.242 99.0721 179.242Z" fill="white"/>
<g opacity="0.6">
<path opacity="0.6" d="M103.863 180.822C103.171 180.822 102.74 181.29 102.89 181.86C103.04 182.431 103.732 182.889 104.415 182.88L140.893 182.356C141.576 182.347 142.137 181.991 142.118 181.561C142.109 181.14 141.538 180.785 140.846 180.785L103.863 180.822Z" fill="white"/>
</g>
<path d="M99.3622 193.473C99.3529 193.473 99.3529 193.473 99.3622 193.473L95.2073 193.445C94.5335 193.445 93.9814 192.978 93.9159 192.37L93.5416 188.892C93.5135 188.648 93.5884 188.405 93.7568 188.209C93.9346 187.994 94.206 187.863 94.4961 187.835C94.8423 187.807 95.329 187.77 95.853 187.723C97.0134 187.62 98.3235 187.508 99.0908 187.489C99.7085 187.48 100.251 187.854 100.41 188.405C100.635 189.219 100.626 190.743 100.588 192.37C100.56 192.987 100.017 193.473 99.3622 193.473ZM99.1095 188.125H99.1002C98.3516 188.134 96.9947 188.256 95.9091 188.359C95.3757 188.405 94.8891 188.452 94.5429 188.471C94.4212 188.48 94.3089 188.536 94.2341 188.62C94.1966 188.667 94.1499 188.742 94.1686 188.836L94.5429 192.314C94.571 192.613 94.8611 192.837 95.2167 192.837L99.3622 192.865C99.6804 192.865 99.9518 192.65 99.9518 192.379C99.9798 191.192 100.017 189.397 99.7927 188.592C99.7178 188.312 99.4371 188.125 99.1095 188.125Z" fill="white"/>
<g opacity="0.6">
<path opacity="0.6" d="M103.901 189.705C103.208 189.705 102.778 190.173 102.928 190.743C103.077 191.313 103.77 191.772 104.453 191.762L140.93 191.239C141.613 191.229 142.175 190.874 142.156 190.444C142.137 190.014 141.576 189.668 140.883 189.668L103.901 189.705Z" fill="white"/>
</g>
<path d="M99.3903 202.356L95.2354 202.328C94.5616 202.328 94.0095 201.86 93.944 201.253L93.5697 197.774C93.5416 197.531 93.6165 197.288 93.7849 197.092C93.9627 196.877 94.2341 196.746 94.5242 196.718C94.8704 196.69 95.357 196.652 95.8811 196.605C97.0415 196.503 98.3516 196.39 99.1189 196.372C99.7272 196.353 100.279 196.736 100.438 197.288C100.663 198.101 100.654 199.626 100.616 201.253C100.597 201.87 100.055 202.356 99.3903 202.356ZM94.5616 197.353C94.44 197.363 94.3277 197.419 94.2528 197.503C94.2154 197.55 94.1686 197.625 94.1873 197.718L94.5616 201.196C94.5897 201.496 94.8798 201.72 95.2354 201.72L99.3809 201.748C99.7085 201.748 99.9705 201.533 99.9799 201.262C100.008 200.074 100.045 198.279 99.8208 197.475C99.7459 197.204 99.4558 197.017 99.1283 197.017H99.1189C98.3703 197.026 97.0134 197.148 95.9279 197.251C95.4038 197.279 94.9172 197.325 94.5616 197.353Z" fill="white"/>
<g opacity="0.6">
<path opacity="0.6" d="M103.938 198.588C103.246 198.588 102.815 199.055 102.965 199.626C103.115 200.196 103.807 200.654 104.49 200.645L140.967 200.121C141.651 200.112 142.212 199.756 142.193 199.326C142.184 198.906 141.613 198.55 140.921 198.55L103.938 198.588Z" fill="white"/>
</g>
<path d="M99.4277 211.238L95.2728 211.21C94.5991 211.21 94.0469 210.743 93.9814 210.135L93.6071 206.657C93.579 206.414 93.6539 206.171 93.8224 205.974C94.0002 205.759 94.2715 205.628 94.5616 205.6C94.9079 205.572 95.3945 205.535 95.9185 205.488C97.0789 205.385 98.389 205.273 99.1563 205.254C99.774 205.245 100.317 205.619 100.476 206.171C100.7 206.984 100.691 208.508 100.654 210.135C100.635 210.752 100.083 211.238 99.4277 211.238ZM94.5991 206.236C94.4774 206.245 94.3651 206.302 94.2902 206.386C94.2528 206.432 94.206 206.507 94.2247 206.601L94.5991 210.079C94.6271 210.378 94.9172 210.603 95.2728 210.603L99.4184 210.631C99.7365 210.631 100.008 210.416 100.008 210.144C100.036 208.957 100.073 207.162 99.8488 206.358C99.774 206.086 99.4839 205.899 99.1563 205.899H99.147C98.3984 205.909 97.0415 206.03 95.9466 206.133C95.4319 206.161 94.9547 206.208 94.5991 206.236Z" fill="white"/>
<g opacity="0.6">
<path opacity="0.6" d="M103.966 207.47C103.274 207.47 102.843 207.938 102.993 208.508C103.143 209.079 103.835 209.537 104.518 209.527L140.996 209.004C141.679 208.994 142.24 208.639 142.221 208.209C142.212 207.788 141.641 207.433 140.949 207.433L103.966 207.47Z" fill="white"/>
</g>
<path d="M159.225 183.356L155.07 183.328C154.396 183.328 153.844 182.861 153.778 182.253L153.404 178.775C153.376 178.532 153.451 178.289 153.619 178.092C153.797 177.877 154.068 177.746 154.359 177.718C154.705 177.69 155.191 177.653 155.716 177.606C156.876 177.503 158.186 177.391 158.953 177.372C159.58 177.354 160.114 177.737 160.273 178.289C160.497 179.102 160.488 180.626 160.451 182.253C160.432 182.87 159.889 183.356 159.225 183.356ZM154.396 178.354C154.274 178.363 154.162 178.419 154.087 178.504C154.05 178.55 154.003 178.625 154.022 178.719L154.396 182.197C154.424 182.496 154.714 182.721 155.07 182.721L159.215 182.749C159.534 182.749 159.805 182.534 159.805 182.262C159.833 181.075 159.87 179.28 159.646 178.476C159.571 178.204 159.29 178.008 158.944 178.017C158.195 178.027 156.838 178.148 155.744 178.251C155.238 178.279 154.752 178.326 154.396 178.354Z" fill="white"/>
<g opacity="0.6">
<path opacity="0.6" d="M163.773 179.588C163.08 179.588 162.65 180.056 162.799 180.626C162.949 181.196 163.642 181.655 164.325 181.645L200.802 181.122C201.485 181.112 202.047 180.757 202.028 180.327C202.009 179.897 201.448 179.551 200.755 179.551L163.773 179.588Z" fill="white"/>
</g>
<path d="M159.262 192.239L155.107 192.211C154.433 192.211 153.881 191.743 153.816 191.136L153.442 187.657C153.413 187.414 153.488 187.171 153.657 186.975C153.835 186.76 154.106 186.629 154.396 186.601C154.742 186.573 155.229 186.535 155.753 186.489C156.913 186.386 158.223 186.274 158.991 186.255C159.618 186.246 160.151 186.62 160.31 187.171C160.535 187.985 160.525 189.509 160.488 191.136C160.469 191.753 159.917 192.239 159.262 192.239ZM159.009 186.891H159C158.252 186.9 156.895 187.022 155.8 187.124C155.266 187.171 154.78 187.218 154.433 187.237C154.312 187.246 154.2 187.302 154.125 187.386C154.087 187.433 154.04 187.508 154.059 187.601L154.433 191.08C154.462 191.379 154.752 191.603 155.107 191.603L159.253 191.631C159.58 191.641 159.842 191.416 159.852 191.145C159.88 189.958 159.917 188.162 159.693 187.358C159.627 187.078 159.337 186.891 159.009 186.891Z" fill="white"/>
<g opacity="0.6">
<path opacity="0.6" d="M163.801 188.471C163.108 188.471 162.678 188.938 162.828 189.509C162.977 190.079 163.67 190.537 164.353 190.528L200.83 190.004C201.513 189.995 202.075 189.64 202.056 189.21C202.047 188.789 201.476 188.433 200.783 188.433L163.801 188.471Z" fill="white"/>
</g>
<path d="M159.3 201.122C159.29 201.122 159.29 201.122 159.3 201.122L155.145 201.094C154.471 201.094 153.919 200.626 153.853 200.018L153.479 196.54C153.451 196.297 153.526 196.054 153.694 195.857C153.872 195.642 154.143 195.511 154.434 195.483C154.78 195.455 155.266 195.418 155.79 195.371C156.951 195.268 158.261 195.156 159.028 195.137C159.646 195.128 160.189 195.502 160.348 196.054C160.572 196.867 160.563 198.391 160.526 200.018C160.497 200.635 159.955 201.122 159.3 201.122ZM154.471 196.119C154.349 196.129 154.237 196.185 154.162 196.269C154.125 196.316 154.078 196.39 154.097 196.484L154.471 199.962C154.499 200.261 154.789 200.486 155.145 200.486L159.29 200.514C159.608 200.514 159.88 200.299 159.88 200.028C159.908 198.84 159.945 197.045 159.721 196.241C159.646 195.97 159.365 195.773 159.019 195.783C158.27 195.792 156.913 195.913 155.828 196.016C155.304 196.044 154.817 196.091 154.471 196.119Z" fill="white"/>
<g opacity="0.6">
<path opacity="0.6" d="M163.838 197.354C163.146 197.354 162.715 197.821 162.865 198.391C163.015 198.962 163.707 199.42 164.39 199.41L200.867 198.887C201.551 198.878 202.112 198.522 202.093 198.092C202.084 197.671 201.513 197.316 200.821 197.316L163.838 197.354Z" fill="white"/>
</g>
<path d="M159.328 210.004L155.173 209.976C154.499 209.976 153.947 209.509 153.881 208.901L153.507 205.423C153.479 205.18 153.554 204.936 153.722 204.74C153.9 204.525 154.171 204.394 154.462 204.366C154.808 204.338 155.285 204.301 155.818 204.254C156.979 204.151 158.289 204.029 159.066 204.02C159.683 204.011 160.226 204.385 160.385 204.936C160.61 205.75 160.6 207.274 160.563 208.901C160.535 209.518 159.992 210.004 159.328 210.004ZM159.084 204.647H159.075C158.326 204.656 156.969 204.777 155.875 204.88C155.341 204.927 154.864 204.974 154.508 204.992C154.387 205.002 154.274 205.058 154.2 205.142C154.162 205.189 154.115 205.264 154.134 205.357L154.508 208.835C154.536 209.135 154.827 209.359 155.182 209.359L159.328 209.387C159.636 209.387 159.917 209.172 159.927 208.901C159.955 207.713 159.992 205.918 159.767 205.114C159.693 204.843 159.403 204.647 159.084 204.647Z" fill="white"/>
<g opacity="0.6">
<path opacity="0.6" d="M163.876 206.236C163.183 206.236 162.753 206.704 162.902 207.274C163.052 207.844 163.745 208.302 164.428 208.293L200.905 207.77C201.588 207.76 202.149 207.405 202.131 206.975C202.121 206.554 201.551 206.199 200.858 206.199L163.876 206.236Z" fill="white"/>
</g>
<path d="M150.297 4.10468C145.6 0.860182 141.52 0.944333 138.656 1.80455C136.045 2.58996 134.351 5.1145 134.613 7.83539L135.905 21.3277L150.634 22.5712C150.634 22.5712 159.515 10.4628 150.297 4.10468ZM143.868 15.0163C141.838 15.0257 140.191 13.3894 140.181 11.3604C140.172 9.33142 141.81 7.68579 143.84 7.67644C145.871 7.66709 147.518 9.30336 147.527 11.3323C147.527 13.3613 145.89 15.0163 143.868 15.0163Z" fill="url(#paint10_linear)"/>
<path d="M137.355 15.596C137.196 15.596 137.056 15.4745 137.047 15.3155L136.841 13.165C136.822 12.9967 136.953 12.8377 137.121 12.8284C137.29 12.8097 137.449 12.9406 137.458 13.1089L137.664 15.2594C137.683 15.4277 137.552 15.5867 137.383 15.596C137.374 15.596 137.365 15.596 137.355 15.596ZM136.944 11.3884C136.785 11.3884 136.644 11.2669 136.635 11.1079L136.476 9.48102C136.232 6.91908 137.833 4.51609 140.294 3.78678C142.044 3.26317 143.85 3.17902 145.656 3.54367C145.824 3.58107 145.937 3.74003 145.899 3.90833C145.862 4.07663 145.703 4.18883 145.534 4.15143C143.831 3.80548 142.128 3.88963 140.472 4.37584C138.3 5.03035 136.878 7.14348 137.093 9.41557L137.252 11.0425C137.271 11.2108 137.14 11.3697 136.972 11.3791C136.972 11.3884 136.962 11.3884 136.944 11.3884Z" fill="white"/>
<path d="M115.841 30.1261L115.813 23.3379C115.804 20.991 117.741 19.1117 120.081 19.1865L166.908 20.6077C168.985 20.6731 170.679 22.3001 170.81 24.3758L171.231 30.8928L115.841 30.1261Z" fill="url(#paint11_linear)"/>
<path d="M131.254 21.6549C131.086 21.6549 130.945 21.5147 130.945 21.3464C130.945 21.1781 131.086 21.0378 131.254 21.0285L133.266 21.0191C133.434 21.0191 133.575 21.1594 133.575 21.3277C133.575 21.496 133.434 21.6362 133.266 21.6456L131.254 21.6549Z" fill="white"/>
<path d="M118.368 27.9382C118.2 27.9382 118.059 27.798 118.059 27.6297L118.05 24.8808C118.05 23.8616 118.443 22.9079 119.154 22.1879C119.875 21.4679 120.829 21.0659 121.84 21.0659L129.242 21.0378C129.41 21.0378 129.551 21.1781 129.551 21.3464C129.551 21.5147 129.41 21.655 129.242 21.6643L121.84 21.6924C120.988 21.6924 120.193 22.029 119.594 22.6367C118.995 23.2351 118.668 24.0392 118.668 24.8901L118.677 27.639C118.677 27.798 118.537 27.9382 118.368 27.9382Z" fill="white"/>
<path d="M101.159 27.6951L183.031 27.3772C185.979 27.3678 188.496 29.4716 189.011 32.3702L189.086 32.7722C189.647 35.9419 187.214 38.8592 183.986 38.8685L99.9892 39.1958C98.0615 39.2052 96.5174 37.5969 96.6016 35.6708L96.7701 31.912C96.873 29.5651 98.8101 27.7045 101.159 27.6951Z" fill="url(#paint12_linear)"/>
<path opacity="0.6" d="M197.864 65.3107H91.8665C91.2489 65.3107 90.7436 64.8058 90.7436 64.1887V48.4431C90.7436 47.8259 91.2489 47.321 91.8665 47.321H197.864C198.481 47.321 198.987 47.8259 198.987 48.4431V64.1887C198.987 64.8058 198.481 65.3107 197.864 65.3107Z" fill="white"/>
<path d="M21.3828 179.551C21.3828 179.551 17.7332 199.859 42.9902 201C71.2604 202.281 122.252 143.702 140.668 120.851C168.545 86.2458 196.114 64.8994 220.276 65.1518C244.438 65.4043 249.004 89.9765 241.696 102.702C241.696 102.702 242.201 79.0368 227.313 81.9166C212.415 84.7965 190.733 101.038 140.677 156.568C111.78 188.63 76.5289 214.361 44.8898 212.716C14.2895 211.108 12.0717 191.248 21.3828 179.551Z" fill="url(#paint13_linear)"/>
<g opacity="0.29">
<path opacity="0.29" d="M209.43 80.4206C209.308 80.4206 209.187 80.3552 209.121 80.243L198.912 63.9644C198.799 63.7867 198.846 63.5436 199.024 63.4314C199.192 63.3099 199.426 63.366 199.539 63.5436L209.748 79.8222C209.86 79.9999 209.814 80.243 209.636 80.3552C209.57 80.4019 209.495 80.4206 209.43 80.4206Z" fill="white"/>
<path opacity="0.29" d="M191.191 91.9214C191.07 91.9214 190.957 91.8653 190.882 91.7531L180.682 75.8017C180.57 75.624 180.617 75.3809 180.785 75.2594C180.954 75.1378 181.188 75.1846 181.3 75.3716L191.5 91.323C191.612 91.5006 191.566 91.7437 191.397 91.8653C191.332 91.9027 191.266 91.9214 191.191 91.9214Z" fill="white"/>
<path opacity="0.29" d="M176.275 102.45C176.162 102.45 176.05 102.403 175.985 102.3L166.037 89.0228C165.906 88.8545 165.944 88.6114 166.103 88.4805C166.262 88.3496 166.496 88.3776 166.627 88.5459L176.574 101.823C176.705 101.991 176.668 102.235 176.509 102.365C176.434 102.422 176.359 102.45 176.275 102.45Z" fill="white"/>
<path opacity="0.29" d="M164.212 113.632C164.128 113.632 164.035 113.604 163.969 113.539L152.88 103.319C152.73 103.179 152.712 102.936 152.852 102.767C152.992 102.609 153.226 102.59 153.376 102.73L164.465 112.95C164.615 113.09 164.634 113.333 164.493 113.501C164.418 113.595 164.315 113.632 164.212 113.632Z" fill="white"/>
<path opacity="0.29" d="M219.162 77.1013C218.984 77.1013 218.825 76.9704 218.797 76.7741C218.778 76.6245 216.476 61.7858 216.317 61.0004C216.271 60.7947 216.402 60.589 216.607 60.5422C216.804 60.4955 217.01 60.6264 217.047 60.8414C217.216 61.6455 219.443 76.0448 219.536 76.6619C219.564 76.8769 219.433 77.0733 219.228 77.1107C219.199 77.1013 219.181 77.1013 219.162 77.1013Z" fill="white"/>
<path opacity="0.29" d="M232.563 77.1013C232.357 77.1013 232.188 76.9237 232.188 76.718V63.7587C232.188 63.5436 232.357 63.3753 232.563 63.3753C232.768 63.3753 232.937 63.553 232.937 63.7587V76.718C232.937 76.933 232.768 77.1013 232.563 77.1013Z" fill="white"/>
<path opacity="0.29" d="M149.951 130.967C149.857 130.967 149.773 130.93 149.698 130.865C147.677 128.91 137.608 119.158 137.262 118.625C137.149 118.448 137.196 118.205 137.365 118.083C137.533 117.961 137.758 118.008 137.879 118.186C138.244 118.681 145.45 125.694 150.204 130.294C150.353 130.444 150.363 130.687 150.222 130.846C150.148 130.93 150.045 130.967 149.951 130.967Z" fill="white"/>
<path opacity="0.29" d="M136.41 146.723C136.307 146.723 136.214 146.685 136.139 146.601L124.881 134.128C124.741 133.969 124.75 133.726 124.9 133.576C125.05 133.427 125.284 133.436 125.424 133.595L136.682 146.068C136.822 146.227 136.813 146.47 136.663 146.62C136.597 146.685 136.504 146.723 136.41 146.723Z" fill="white"/>
<path opacity="0.29" d="M121.456 166.376C121.344 166.376 121.241 166.33 121.166 166.227L109.478 150.724C109.347 150.556 109.375 150.313 109.544 150.182C109.703 150.051 109.937 150.079 110.068 150.248L121.756 165.75C121.887 165.918 121.859 166.161 121.69 166.292C121.615 166.348 121.531 166.376 121.456 166.376Z" fill="white"/>
<path opacity="0.29" d="M106.951 180.093C106.839 180.093 106.718 180.037 106.652 179.934L96.5548 165.18C96.4331 165.002 96.4706 164.759 96.639 164.637C96.8074 164.516 97.0414 164.553 97.1537 164.731L107.251 179.485C107.373 179.663 107.335 179.906 107.167 180.028C107.101 180.065 107.026 180.093 106.951 180.093Z" fill="white"/>
<path opacity="0.29" d="M95.0388 188.995C94.9265 188.995 94.8142 188.938 94.7394 188.836L84.3147 174.137C84.193 173.969 84.2305 173.726 84.3895 173.595C84.558 173.464 84.7919 173.501 84.9136 173.679L95.3383 188.377C95.4599 188.546 95.4225 188.789 95.2634 188.92C95.1979 188.967 95.1137 188.995 95.0388 188.995Z" fill="white"/>
<path opacity="0.29" d="M80.4312 198.765C80.3189 198.765 80.2066 198.709 80.1317 198.607L71.8313 186.956C71.7096 186.788 71.7471 186.545 71.9061 186.414C72.0746 186.283 72.3085 186.32 72.4302 186.498L80.7306 198.148C80.8523 198.317 80.8148 198.56 80.6558 198.691C80.5903 198.737 80.5154 198.765 80.4312 198.765Z" fill="white"/>
<path opacity="0.29" d="M67.0681 205.488C66.9371 205.488 66.8154 205.423 66.7499 205.301L60.6298 194.595C60.5269 194.408 60.583 194.174 60.7608 194.062C60.9386 193.95 61.1632 194.016 61.2755 194.193L67.3956 204.899C67.4985 205.086 67.4424 205.32 67.2646 205.432C67.1991 205.469 67.1336 205.488 67.0681 205.488Z" fill="white"/>
<path opacity="0.29" d="M57.3078 208.069C57.1674 208.069 57.0364 207.994 56.9709 207.854L52.0018 197.456C51.9083 197.26 51.9831 197.036 52.1703 196.933C52.3574 196.839 52.582 196.914 52.6662 197.11L57.6353 207.508C57.7289 207.704 57.654 207.929 57.4669 208.031C57.4201 208.059 57.3639 208.069 57.3078 208.069Z" fill="white"/>
<path opacity="0.29" d="M46.2187 209.789C46.0409 209.789 45.8818 209.649 45.8537 209.462L44.1973 198.429C44.1693 198.214 44.3003 198.017 44.5062 197.989C44.712 197.961 44.8992 198.102 44.9273 198.317L46.5836 209.35C46.6117 209.565 46.4807 209.761 46.2748 209.789C46.2561 209.789 46.2374 209.789 46.2187 209.789Z" fill="white"/>
<path opacity="0.29" d="M37.6094 208.929C37.5907 208.929 37.572 208.929 37.5532 208.929C37.3474 208.901 37.207 208.695 37.2444 208.49L38.9008 197.232C38.9288 197.017 39.1254 196.877 39.3219 196.905C39.5277 196.933 39.6681 197.139 39.6307 197.344L37.9837 208.602C37.9556 208.798 37.7965 208.929 37.6094 208.929Z" fill="white"/>
<path opacity="0.29" d="M29.6645 206.348C29.6177 206.348 29.5803 206.339 29.5335 206.32C29.337 206.246 29.2434 206.021 29.3183 205.825L32.4625 197.092C32.5374 196.895 32.7526 196.793 32.9398 196.867C33.1363 196.942 33.2299 197.167 33.155 197.363L30.0108 206.096C29.964 206.255 29.8236 206.348 29.6645 206.348Z" fill="white"/>
<path opacity="0.29" d="M21.8881 196.746C21.7945 196.746 21.7103 196.708 21.6355 196.643C21.4857 196.503 21.4764 196.25 21.6167 196.091L27.5777 189.322C27.7181 189.163 27.9521 189.153 28.1018 189.294C28.2515 189.434 28.2609 189.686 28.1205 189.845L22.1595 196.615C22.094 196.699 21.9911 196.746 21.8881 196.746Z" fill="white"/>
<path opacity="0.29" d="M20.3628 186.938C20.2318 186.938 20.1007 186.863 20.0352 186.732C19.9417 186.545 20.0072 186.311 20.185 186.208C22.1408 185.114 25.9401 182.982 26.3237 182.73C26.5015 182.618 26.7261 182.664 26.8384 182.851C26.9507 183.029 26.8946 183.272 26.7261 183.384C26.2208 183.721 20.7652 186.769 20.5406 186.9C20.4844 186.919 20.4189 186.938 20.3628 186.938Z" fill="white"/>
<path opacity="0.29" d="M222.306 70.4908C222.185 70.4908 222.072 70.3973 222.063 70.257L221.193 62.3C221.174 62.1598 221.277 62.0289 221.408 62.0102C221.539 61.9915 221.67 62.0943 221.679 62.2346L222.55 70.1916C222.568 70.3318 222.465 70.4627 222.334 70.4814C222.325 70.4908 222.316 70.4908 222.306 70.4908Z" fill="white"/>
<path opacity="0.29" d="M225.778 70.1635C225.647 70.1635 225.544 70.0607 225.535 69.9204L225.039 62.3001C225.029 62.1598 225.132 62.0383 225.273 62.0289C225.413 62.0196 225.525 62.1224 225.535 62.272L226.031 69.8924C226.04 70.0326 225.937 70.1542 225.797 70.1635C225.787 70.1635 225.787 70.1635 225.778 70.1635Z" fill="white"/>
<path opacity="0.29" d="M229.503 70.4908C229.362 70.4908 229.25 70.3786 229.25 70.229V63.7493C229.25 63.6091 229.362 63.4875 229.503 63.4875C229.643 63.4875 229.755 63.5997 229.755 63.7493V70.229C229.755 70.3786 229.643 70.4908 229.503 70.4908Z" fill="white"/>
<path opacity="0.29" d="M215.971 71.0705C215.868 71.0705 215.765 70.9957 215.737 70.8835C213.8 64.0672 213.968 63.7493 214.025 63.6371C214.053 63.5717 214.128 63.5156 214.193 63.4969C214.324 63.4595 214.464 63.5436 214.502 63.6745C214.521 63.74 214.511 63.8054 214.483 63.8522C214.493 64.3758 215.372 67.7418 216.214 70.7152C216.252 70.8554 216.177 70.9957 216.046 71.0331C216.018 71.0705 215.999 71.0705 215.971 71.0705Z" fill="white"/>
<path opacity="0.29" d="M212.752 72.1551C212.649 72.1551 212.546 72.0803 212.518 71.9774L210.272 64.4225C210.235 64.2823 210.31 64.142 210.441 64.0953C210.572 64.0485 210.712 64.1327 210.749 64.2636L212.986 71.8091C213.023 71.9494 212.949 72.0896 212.817 72.1364C212.799 72.1551 212.771 72.1551 212.752 72.1551Z" fill="white"/>
<path opacity="0.29" d="M209.43 73.006C209.346 73.006 209.271 72.9686 209.224 72.8844L205.097 66.2271C205.022 66.1056 205.06 65.9466 205.172 65.8718C205.284 65.797 205.443 65.825 205.518 65.9466L209.645 72.6039C209.72 72.7255 209.683 72.8844 209.57 72.9592C209.514 72.9966 209.477 73.006 209.43 73.006Z" fill="white"/>
<path opacity="0.29" d="M201.579 76.9704C201.494 76.9704 201.41 76.9236 201.363 76.8488L197.021 69.5558C196.946 69.4342 196.984 69.2753 197.106 69.2005C197.218 69.1257 197.377 69.1631 197.452 69.2846L201.794 76.5777C201.869 76.6992 201.831 76.8582 201.71 76.933C201.663 76.961 201.625 76.9704 201.579 76.9704Z" fill="white"/>
<path opacity="0.29" d="M195.87 79.3547C195.786 79.3547 195.711 79.3173 195.664 79.2425L190.985 72.0336C190.911 71.912 190.939 71.753 191.051 71.6782C191.163 71.5941 191.322 71.6315 191.397 71.7437L196.076 78.9527C196.151 79.0742 196.123 79.2332 196.011 79.308C195.964 79.3454 195.917 79.3547 195.87 79.3547Z" fill="white"/>
<path opacity="0.29" d="M191.191 82.4403C191.107 82.4403 191.032 82.4029 190.985 82.3281L185.885 74.4459C185.811 74.3243 185.839 74.1654 185.951 74.0906C186.063 74.0064 186.222 74.0438 186.297 74.156L191.397 82.0382C191.472 82.1598 191.444 82.3187 191.332 82.3935C191.285 82.4309 191.238 82.4403 191.191 82.4403Z" fill="white"/>
<path opacity="0.29" d="M183.331 87.6109C183.256 87.6109 183.172 87.5735 183.125 87.4987L178.156 80.1775C178.081 80.0653 178.1 79.897 178.212 79.8129C178.324 79.7287 178.483 79.7568 178.558 79.8783L183.527 87.1995C183.602 87.3117 183.583 87.48 183.471 87.5641C183.434 87.6015 183.377 87.6109 183.331 87.6109Z" fill="white"/>
<path opacity="0.29" d="M178.979 90.0793C178.895 90.0793 178.82 90.0419 178.773 89.9671L174.31 82.9826C174.235 82.861 174.263 82.7021 174.375 82.6273C174.487 82.5525 174.647 82.5805 174.721 82.7021L179.185 89.6866C179.26 89.8082 179.232 89.9671 179.12 90.0419C179.073 90.0606 179.026 90.0793 178.979 90.0793Z" fill="white"/>
<path opacity="0.29" d="M175.507 93.8194C175.433 93.8194 175.358 93.782 175.311 93.7165L170.22 86.4795C170.136 86.3673 170.164 86.199 170.276 86.1149C170.389 86.0307 170.538 86.0588 170.623 86.171L175.713 93.408C175.798 93.5202 175.769 93.6885 175.657 93.7726C175.61 93.8007 175.564 93.8194 175.507 93.8194Z" fill="white"/>
<path opacity="0.29" d="M168.311 100.411C168.236 100.411 168.171 100.383 168.115 100.318L162.565 93.2116C162.481 93.0994 162.491 92.9405 162.603 92.847C162.706 92.7535 162.865 92.7722 162.949 92.8844L168.498 99.9905C168.583 100.103 168.573 100.262 168.461 100.355C168.424 100.393 168.367 100.411 168.311 100.411Z" fill="white"/>
<path opacity="0.29" d="M164.212 104.413C164.156 104.413 164.1 104.394 164.053 104.348L157.353 98.3075C157.25 98.214 157.241 98.055 157.325 97.9428C157.419 97.8306 157.568 97.8213 157.671 97.9148L164.372 103.955C164.475 104.048 164.484 104.207 164.4 104.32C164.353 104.385 164.287 104.413 164.212 104.413Z" fill="white"/>
<path opacity="0.29" d="M156.642 112.819C156.586 112.819 156.53 112.8 156.483 112.753L149.783 106.676C149.68 106.582 149.67 106.423 149.754 106.311C149.848 106.199 149.998 106.19 150.101 106.283L156.801 112.361C156.904 112.454 156.913 112.613 156.829 112.725C156.782 112.791 156.717 112.819 156.642 112.819Z" fill="white"/>
<path opacity="0.29" d="M154.284 116.4C154.228 116.4 154.181 116.381 154.134 116.353L146.807 110.668C146.694 110.584 146.676 110.425 146.76 110.304C146.844 110.191 146.994 110.163 147.106 110.248L154.433 115.932C154.546 116.017 154.564 116.176 154.48 116.297C154.433 116.363 154.359 116.4 154.284 116.4Z" fill="white"/>
<path opacity="0.29" d="M150.625 120.944C150.569 120.944 150.513 120.925 150.466 120.879L143.597 114.689C143.494 114.595 143.485 114.436 143.569 114.324C143.663 114.212 143.812 114.203 143.915 114.296L150.784 120.486C150.887 120.579 150.896 120.738 150.812 120.851C150.765 120.916 150.69 120.944 150.625 120.944Z" fill="white"/>
<path opacity="0.29" d="M142.371 129.49C142.306 129.49 142.24 129.462 142.193 129.415L136.232 123.216C136.139 123.113 136.139 122.954 136.232 122.852C136.326 122.749 136.485 122.749 136.588 122.852L142.549 129.051C142.642 129.154 142.642 129.313 142.549 129.415C142.502 129.462 142.437 129.49 142.371 129.49Z" fill="white"/>
<path opacity="0.29" d="M139.395 133.389C139.33 133.389 139.255 133.361 139.208 133.305L133.247 126.302C133.154 126.199 133.163 126.031 133.266 125.937C133.369 125.844 133.528 125.853 133.612 125.956L139.573 132.959C139.667 133.062 139.657 133.23 139.554 133.324C139.508 133.371 139.451 133.389 139.395 133.389Z" fill="white"/>
<path opacity="0.29" d="M135.699 137.372C135.633 137.372 135.577 137.344 135.53 137.298C133.238 135.025 129.719 131.566 129.448 131.379C129.336 131.295 129.307 131.136 129.382 131.024C129.457 130.902 129.616 130.874 129.729 130.949C130.112 131.211 135.287 136.335 135.877 136.924C135.98 137.026 135.98 137.185 135.886 137.288C135.83 137.344 135.764 137.372 135.699 137.372Z" fill="white"/>
<path opacity="0.29" d="M128.465 145.255C128.4 145.255 128.334 145.226 128.278 145.17C127.717 144.535 122.794 138.943 122.542 138.541C122.467 138.42 122.495 138.261 122.617 138.186C122.729 138.111 122.888 138.139 122.963 138.261C123.141 138.541 126.463 142.337 128.652 144.824C128.746 144.927 128.737 145.096 128.634 145.189C128.587 145.236 128.531 145.255 128.465 145.255Z" fill="white"/>
<path opacity="0.29" d="M124.002 149.911C123.917 149.911 123.842 149.874 123.796 149.789L119.697 143.272C119.622 143.151 119.65 142.992 119.772 142.917C119.884 142.842 120.043 142.87 120.118 142.992L124.217 149.509C124.292 149.63 124.264 149.789 124.142 149.864C124.095 149.892 124.048 149.911 124.002 149.911Z" fill="white"/>
<path opacity="0.29" d="M121.447 154.951C121.381 154.951 121.316 154.923 121.269 154.867L114.634 147.63C114.541 147.527 114.541 147.358 114.644 147.265C114.747 147.162 114.896 147.171 114.999 147.274L121.634 154.511C121.728 154.614 121.728 154.782 121.625 154.876C121.568 154.923 121.512 154.951 121.447 154.951Z" fill="white"/>
<path opacity="0.29" d="M113.699 163.095C113.624 163.095 113.539 163.057 113.493 162.982L108.393 155.484C108.318 155.371 108.336 155.203 108.449 155.119C108.561 155.035 108.72 155.063 108.795 155.184L113.895 162.683C113.97 162.795 113.951 162.964 113.839 163.048C113.801 163.076 113.745 163.095 113.699 163.095Z" fill="white"/>
<path opacity="0.29" d="M109.768 166.246C109.684 166.246 109.609 166.208 109.562 166.133L104.556 158.382C104.481 158.261 104.509 158.102 104.621 158.027C104.734 157.943 104.893 157.98 104.968 158.102L109.974 165.853C110.049 165.975 110.021 166.133 109.909 166.208C109.862 166.227 109.815 166.246 109.768 166.246Z" fill="white"/>
<path opacity="0.29" d="M106.006 169.668C105.931 169.668 105.857 169.63 105.81 169.574L100.223 162.272C100.139 162.16 100.158 162.001 100.261 161.907C100.363 161.823 100.523 161.832 100.607 161.945L106.193 169.247C106.278 169.359 106.259 169.518 106.156 169.612C106.109 169.649 106.053 169.668 106.006 169.668Z" fill="white"/>
<path opacity="0.29" d="M99.2967 175.848C99.2218 175.848 99.147 175.811 99.0908 175.736L94.1218 168.546C94.0375 168.434 94.0656 168.265 94.1779 168.181C94.2902 168.097 94.4399 168.125 94.5242 168.237L99.4932 175.427C99.5774 175.54 99.5494 175.708 99.4371 175.792C99.3996 175.829 99.3528 175.848 99.2967 175.848Z" fill="white"/>
<path opacity="0.29" d="M96.0776 178.56C96.0027 178.56 95.9278 178.522 95.8717 178.448L90.9027 171.248C90.8184 171.136 90.8465 170.967 90.9588 170.883C91.0711 170.799 91.2208 170.827 91.305 170.939L96.2741 178.139C96.3583 178.251 96.3302 178.419 96.2179 178.504C96.1711 178.55 96.1243 178.56 96.0776 178.56Z" fill="white"/>
<path opacity="0.29" d="M93.5884 180.804C93.5135 180.804 93.4387 180.766 93.3919 180.701L88.5538 174.062C88.4696 173.95 88.4883 173.791 88.6006 173.698C88.7129 173.614 88.8626 173.632 88.9468 173.744L93.7849 180.383C93.8691 180.495 93.8504 180.654 93.7381 180.748C93.7007 180.785 93.6445 180.804 93.5884 180.804Z" fill="white"/>
<path opacity="0.29" d="M88.7503 185.675C88.6754 185.675 88.6099 185.647 88.5538 185.582L82.9391 178.466C82.8549 178.354 82.8642 178.195 82.9765 178.102C83.0795 178.008 83.2386 178.027 83.3228 178.139L88.9375 185.254C89.0217 185.367 89.0123 185.526 88.9 185.619C88.8626 185.656 88.8065 185.675 88.7503 185.675Z" fill="white"/>
<path opacity="0.29" d="M84.6141 188.433C84.5299 188.433 84.455 188.396 84.4083 188.321L79.4392 180.692C79.3644 180.57 79.3924 180.411 79.5047 180.336C79.617 180.252 79.7761 180.29 79.851 180.402L84.82 188.031C84.8949 188.153 84.8668 188.312 84.7545 188.387C84.7077 188.415 84.6609 188.433 84.6141 188.433Z" fill="white"/>
<path opacity="0.29" d="M81.0113 191.229C80.9365 191.229 80.8616 191.192 80.8148 191.126L76.0891 184.516C76.0049 184.404 76.0329 184.235 76.1359 184.151C76.2482 184.067 76.3979 184.086 76.4821 184.207L81.2078 190.818C81.2921 190.93 81.264 191.098 81.161 191.182C81.1143 191.211 81.0581 191.229 81.0113 191.229Z" fill="white"/>
<path opacity="0.29" d="M73.3566 196.615C73.2724 196.615 73.1975 196.578 73.1507 196.493L68.3501 188.742C68.2752 188.62 68.3126 188.462 68.4249 188.387C68.5372 188.312 68.6963 188.34 68.7712 188.462L73.5718 196.213C73.6467 196.334 73.6093 196.493 73.497 196.568C73.4502 196.596 73.4034 196.615 73.3566 196.615Z" fill="white"/>
<path opacity="0.29" d="M68.5559 198.635C68.4717 198.635 68.3969 198.588 68.3501 198.513L63.8022 191.098C63.7273 190.977 63.7647 190.818 63.877 190.743C63.9893 190.668 64.1484 190.706 64.2233 190.818L68.7712 198.233C68.846 198.354 68.8086 198.513 68.6963 198.588C68.6495 198.625 68.6027 198.635 68.5559 198.635Z" fill="white"/>
<path opacity="0.29" d="M60.948 202.122C60.8638 202.122 60.7702 202.075 60.7328 201.982L57.0925 194.913C57.027 194.792 57.0738 194.633 57.1955 194.567C57.3171 194.502 57.4669 194.549 57.5324 194.67L61.1726 201.739C61.2381 201.86 61.1913 202.019 61.0697 202.085C61.0229 202.113 60.9854 202.122 60.948 202.122Z" fill="white"/>
<path opacity="0.29" d="M58.2997 203.235C58.2155 203.235 58.1406 203.188 58.0939 203.113L54.6221 197.363C54.5472 197.241 54.5846 197.082 54.6969 197.008C54.8092 196.933 54.9683 196.97 55.0432 197.092L58.515 202.842C58.5898 202.964 58.5524 203.123 58.4401 203.197C58.3933 203.216 58.3465 203.235 58.2997 203.235Z" fill="white"/>
<path opacity="0.29" d="M52.3387 205.357C52.2358 205.357 52.1422 205.292 52.1048 205.189L49.784 198.429C49.7372 198.298 49.8027 198.148 49.9337 198.102C50.0648 198.055 50.2051 198.12 50.2519 198.261L52.5727 205.021C52.6195 205.152 52.554 205.301 52.423 205.348C52.3949 205.348 52.3668 205.357 52.3387 205.357Z" fill="white"/>
<path opacity="0.29" d="M49.1945 206.217C49.0822 206.217 48.9793 206.143 48.9512 206.021L47.1357 198.438C47.0983 198.298 47.1825 198.158 47.3135 198.12C47.4445 198.083 47.5849 198.167 47.613 198.307L49.4284 205.89C49.4659 206.03 49.3816 206.171 49.2506 206.208C49.2319 206.217 49.2132 206.217 49.1945 206.217Z" fill="white"/>
<path opacity="0.29" d="M42.7469 206.218C42.6065 206.218 42.4942 206.105 42.4942 205.956V198.373C42.4942 198.232 42.6065 198.111 42.7469 198.111C42.8872 198.111 42.9995 198.223 42.9995 198.373V205.956C42.9902 206.105 42.8779 206.218 42.7469 206.218Z" fill="white"/>
<path opacity="0.29" d="M40.5759 206.217C40.4355 206.217 40.3232 206.105 40.3232 205.956V198.335C40.3232 198.195 40.4355 198.073 40.5759 198.073C40.7162 198.073 40.8285 198.186 40.8285 198.335V205.956C40.8192 206.105 40.7162 206.217 40.5759 206.217Z" fill="white"/>
<path opacity="0.29" d="M35.4571 205.357C35.4477 205.357 35.429 205.357 35.4197 205.357C35.2886 205.339 35.1951 205.208 35.2138 205.058L36.2057 198.335C36.2244 198.195 36.3554 198.092 36.4865 198.12C36.6175 198.139 36.711 198.27 36.6923 198.419L35.7004 205.142C35.691 205.264 35.5787 205.357 35.4571 205.357Z" fill="white"/>
<path opacity="0.29" d="M32.8088 204.151C32.7807 204.151 32.762 204.151 32.7339 204.142C32.6029 204.095 32.528 203.955 32.5748 203.815C33.4264 201 34.2031 197.84 34.0347 197.419C33.9598 197.307 33.9879 197.148 34.1002 197.064C34.2125 196.98 34.3715 197.017 34.4464 197.129C34.8675 197.746 33.6135 202.113 33.0521 203.964C33.0146 204.076 32.9211 204.151 32.8088 204.151Z" fill="white"/>
<path opacity="0.29" d="M27.9427 202.122C27.8959 202.122 27.8491 202.113 27.8117 202.085C27.6994 202.01 27.6619 201.851 27.7368 201.729L31.0308 196.213C31.1056 196.091 31.2553 196.054 31.377 196.129C31.4893 196.204 31.5267 196.362 31.4519 196.484L28.1579 202.001C28.1111 202.085 28.0269 202.122 27.9427 202.122Z" fill="white"/>
<path opacity="0.29" d="M25.6968 198.597C25.6594 198.597 25.6126 198.588 25.5751 198.569C25.4535 198.504 25.4067 198.345 25.4722 198.223L28.448 192.435C28.5135 192.314 28.6632 192.258 28.7849 192.333C28.9065 192.398 28.9533 192.557 28.8878 192.678L25.912 198.466C25.8746 198.541 25.781 198.597 25.6968 198.597Z" fill="white"/>
<path opacity="0.29" d="M21.8881 191.229C21.7945 191.229 21.7103 191.173 21.6635 191.089C21.6074 190.958 21.6542 190.808 21.7758 190.743L26.408 188.377C26.5296 188.312 26.6793 188.368 26.7355 188.499C26.7916 188.63 26.7449 188.779 26.6232 188.845L21.991 191.21C21.963 191.22 21.9255 191.229 21.8881 191.229Z" fill="white"/>
<path opacity="0.29" d="M21.8881 188.284C21.8039 188.284 21.729 188.247 21.6822 188.172C21.6074 188.05 21.6354 187.891 21.7571 187.816L25.5658 185.208C25.6781 185.133 25.8371 185.161 25.912 185.282C25.9869 185.404 25.9588 185.563 25.8371 185.638L22.0285 188.247C21.9817 188.265 21.9349 188.284 21.8881 188.284Z" fill="white"/>
</g>
<path d="M27.1192 224.665C27.4186 222.3 27.821 221.103 28.1392 220.495C27.9052 220.467 27.6619 220.448 27.4186 220.43C27.1566 220.411 26.9227 220.589 26.8946 220.832L25.6874 233.847C25.65 234.259 26.1085 234.549 26.5016 234.408C26.539 232.697 26.6513 228.321 27.1192 224.665Z" fill="url(#paint14_linear)"/>
<path d="M32.4719 221.496C33.5013 221.898 34.1189 222.945 33.9785 224.039L33.8382 225.123C31.8824 230.762 28.3919 233.37 26.67 234.361C26.6326 234.38 26.6045 234.389 26.5671 234.399C26.5951 232.678 26.7074 228.303 27.1753 224.656C27.4748 222.29 27.8772 221.094 28.1953 220.486C30.0482 220.682 31.4706 221.103 32.4719 221.496Z" fill="url(#paint15_linear)"/>
<path d="M31.6016 224.918L32.004 222.87C32.0976 222.393 32.6871 222.057 33.3328 222.131L37.4222 222.58L37.2257 227.844L32.4719 226.451C31.8262 226.386 31.5081 225.395 31.6016 224.918Z" fill="url(#paint16_linear)"/>
<path d="M118.265 258.12C116.029 258.943 114.784 259.139 114.092 259.13C114.176 259.354 114.269 259.569 114.372 259.803C114.475 260.046 114.737 260.168 114.962 260.084L127.08 255.165C127.464 255.007 127.511 254.474 127.202 254.184C125.658 254.95 121.728 256.858 118.265 258.12Z" fill="url(#paint17_linear)"/>
<path d="M112.978 254.838C112.866 253.744 113.511 252.706 114.541 252.332L115.57 251.958C121.484 251.098 125.405 252.996 127.08 254.062C127.108 254.081 127.136 254.109 127.165 254.137C125.62 254.904 121.69 256.811 118.228 258.083C115.991 258.905 114.747 259.102 114.054 259.092C113.38 257.363 113.09 255.904 112.978 254.838Z" fill="url(#paint18_linear)"/>
<path d="M116.422 254.034L114.419 254.623C113.951 254.763 113.38 254.389 113.146 253.791L111.668 249.957L116.431 247.704L117.386 252.557C117.62 253.155 116.89 253.894 116.422 254.034Z" fill="url(#paint19_linear)"/>
<path d="M87.8239 209.771C87.8239 209.771 72.3366 235.512 64.4104 235.371C56.4843 235.222 34.7552 228.826 34.7552 228.826L35.9343 221.14L58.8331 222.571L66.1697 202.954L87.8239 209.771Z" fill="url(#paint20_linear)"/>
<path d="M60.4707 186.835C60.4707 186.835 54.9215 206.835 69.3888 210.593C83.8562 214.352 95.7407 217.915 95.7407 217.915L111.593 252.959L118.331 251.379C118.331 251.379 114.765 216.334 108.028 208.611C101.29 200.888 94.7394 195.614 94.7394 195.614L60.4707 186.835Z" fill="url(#paint21_linear)"/>
<path d="M84.923 172.286C84.4831 171.65 69.7444 158.036 79.3269 152.192C88.9094 146.358 96.9011 169.687 96.9011 169.687L111.846 169.855C111.846 169.855 113.521 166.844 114.793 167.611C116.057 168.377 117.835 167.573 118.686 169.556C119.538 171.528 118.508 173.557 116.927 174.605C115.336 175.643 93.186 184.217 84.923 172.286Z" fill="url(#paint22_linear)"/>
<path d="M84.8949 144.263C84.8949 144.263 90.4909 150.799 91.0898 151.098C81.2827 152.286 69.0707 146.835 69.0707 146.835C69.0707 146.835 77.1091 143.076 77.5583 137.831C80.0194 137.952 84.4457 137.831 84.4457 137.831L84.8949 144.263Z" fill="url(#paint23_linear)"/>
<path d="M72.4395 144.824C72.4395 144.824 87.7584 151.117 90.1166 150.163C92.4748 152.379 100.401 163.169 97.4344 166.732C97.3689 166.807 99.9424 194.764 97.5467 197.456C96.6577 198.466 94.206 197.438 92.9333 197.419C89.4147 197.372 85.9617 196.587 82.5367 195.82C78.1198 194.829 73.7216 193.698 69.3888 192.305C67.4986 191.697 65.6176 191.042 63.7648 190.332C62.3891 189.799 60.3304 189.35 59.4133 188.106C58.5056 186.881 59.6473 183.216 59.8532 181.72C61.0884 172.903 62.8758 163.777 62.8758 154.857C62.8664 148.331 72.4395 144.824 72.4395 144.824Z" fill="url(#paint24_linear)"/>
<path d="M76.7254 137.307C75.8738 138.102 74.8819 138.812 74.1052 138.363C73.0478 137.756 72.3459 134.577 72.271 133.857C72.1962 133.146 69.2672 125.255 70.6334 123.3C71.3914 122.206 72.271 122.038 73.3004 122.87C73.4782 122.665 73.5624 122.337 73.7683 122.132C76.2575 119.757 79.2988 117.971 82.5741 116.942C82.4431 117.672 82.3121 118.401 82.1904 119.13C84.4176 117.924 86.8974 117.176 89.4241 116.952C88.245 117.728 87.2156 118.719 86.4015 119.869C87.8426 119.429 89.3211 118.99 90.8184 119.112C92.428 119.242 94.5896 120.168 93.579 121.72C92.5309 123.328 90.0698 124.983 88.6474 126.358C85.2224 129.668 81.7038 132.875 78.0917 135.97C77.7641 136.25 77.2775 136.793 76.7254 137.307Z" fill="url(#paint25_linear)"/>
<path d="M89.3305 125.526C89.3305 125.526 102.263 142.599 89.9949 145.273C79.4205 147.583 77.0997 137.503 77.0997 137.503C77.0997 137.503 75.6493 137.475 74.7041 135.409C73.759 133.342 74.8445 129.967 77.3243 130.547C79.8042 131.126 80.2721 134.455 80.2721 134.455C80.2721 134.455 79.6919 126.797 82.0594 126.311C84.4083 125.806 89.3305 125.526 89.3305 125.526Z" fill="url(#paint26_linear)"/>
<path d="M56.138 154.595C56.8492 154.306 73.1788 142.88 76.8284 153.399C80.4779 163.917 56.138 166.76 56.138 166.76L52.8253 181.215C52.8253 181.215 55.3988 183.478 54.3788 184.544C53.3681 185.61 53.7705 187.499 51.6743 187.91C49.5782 188.312 47.8189 186.9 47.1451 185.142C46.462 183.384 42.803 160.093 56.138 154.595Z" fill="url(#paint27_linear)"/>
<path d="M114.082 171.706C114.316 171.669 114.485 171.575 114.606 171.398C114.934 170.93 114.775 170.117 114.775 170.107C114.756 170.032 114.793 169.958 114.85 169.911C114.906 169.864 114.99 169.855 115.055 169.873C115.055 169.873 115.374 169.986 116.225 169.743C116.309 169.715 116.347 169.686 116.347 169.677C116.375 169.499 115.841 168.957 115.196 168.527C115.102 168.462 115.074 168.34 115.14 168.247C115.205 168.153 115.327 168.125 115.42 168.19C115.757 168.415 116.833 169.182 116.749 169.743C116.73 169.873 116.637 170.051 116.337 170.145C116.16 170.191 116.019 170.229 115.879 170.257C115.832 171.192 115.841 173.258 116.337 173.763C116.403 173.829 116.459 173.857 116.534 173.847C116.646 173.847 116.74 173.922 116.749 174.044C116.759 174.156 116.674 174.249 116.553 174.259C116.543 174.259 116.525 174.259 116.515 174.259C116.337 174.259 116.178 174.184 116.038 174.053C115.374 173.389 115.42 171.108 115.458 170.313C115.364 170.322 115.28 170.322 115.205 170.322C115.233 170.659 115.224 171.229 114.934 171.641C114.747 171.902 114.475 172.071 114.129 172.117C114.12 172.117 114.11 172.117 114.101 172.117C113.998 172.117 113.914 172.043 113.895 171.94C113.895 171.818 113.97 171.715 114.082 171.706Z" fill="url(#paint28_linear)"/>
<path d="M76.8283 153.399C74.0678 145.442 64.0548 150.042 59.0296 152.875C60.9854 156.802 62.6043 161.047 63.4933 165.339C70.3246 163.609 79.121 160.028 76.8283 153.399Z" fill="url(#paint29_linear)"/>
<path d="M180.87 169.135C176.191 170.883 171.044 170.93 166.309 169.34C161.04 167.573 152.487 167.199 139.536 173.006C114.129 184.385 115.027 234.025 151.093 241.449C198.191 251.145 220.285 227.835 224.346 211.07C228.408 194.305 217.655 172.978 196.75 168.424C189.9 166.919 184.641 167.723 180.87 169.135Z" fill="url(#paint30_linear)"/>
<path opacity="0.23" d="M148.323 176.727C152.459 176.998 160.17 178.756 153.105 187.798C146.03 196.83 140.097 211.753 143.12 221.43C146.142 231.108 126.5 219.149 125.377 206.283C124.254 193.408 135.465 175.895 148.323 176.727Z" fill="white"/>
<path d="M187.214 174.782C187.214 177.139 181.141 179.046 173.655 179.046C166.168 179.046 160.095 177.139 160.095 174.782C160.095 172.426 166.168 174.782 173.655 174.782C181.15 174.782 187.214 172.435 187.214 174.782Z" fill="url(#paint31_linear)"/>
<path d="M170.145 174.203C170.145 174.203 165.831 156.316 186.278 144.862C206.725 133.408 206.267 132.379 207.381 138.429C208.494 144.488 214.67 165.956 192.258 175.175C169.855 184.404 170.145 174.203 170.145 174.203Z" fill="url(#paint32_linear)"/>
<path opacity="0.23" d="M203.694 139.102C200.484 144.32 185.586 167.873 172.485 177.185C172.485 177.185 188.028 179.186 199.183 168.751C208.719 159.831 205.705 143.721 204.629 139.242C204.526 138.803 203.937 138.709 203.694 139.102Z" fill="white"/>
<path d="M172.738 177.512C173.159 180.448 175.667 177.213 174.487 171.379C173.318 165.544 172.111 151.669 163.679 154.09C155.257 156.521 170.96 165.114 172.738 177.512Z" fill="url(#paint33_linear)"/>
<path d="M240.994 243.104L176.547 246.217C175.199 246.283 174.039 245.236 173.973 243.88L173.421 232.398C173.356 231.052 174.404 229.892 175.76 229.827L240.208 226.713C241.556 226.648 242.716 227.695 242.782 229.051L243.334 240.533C243.399 241.879 242.342 243.038 240.994 243.104Z" fill="url(#paint34_linear)"/>
<mask id="mask0" mask-type="alpha" maskUnits="userSpaceOnUse" x="173" y="226" width="70" height="9">
<path d="M242.257 231.08L174.132 234.371C173.795 234.39 173.505 234.128 173.486 233.791L173.346 230.921C173.327 230.584 173.589 230.294 173.926 230.275L242.052 226.984C242.388 226.966 242.679 227.227 242.697 227.564L242.838 230.434C242.856 230.78 242.594 231.07 242.257 231.08Z" fill="url(#paint35_linear)"/>
</mask>
<g mask="url(#mask0)">
<path opacity="0.37" d="M242.257 231.08L174.132 234.371C173.795 234.39 173.505 234.128 173.486 233.791L173.346 230.921C173.327 230.584 173.589 230.294 173.926 230.275L242.052 226.984C242.388 226.966 242.679 227.227 242.697 227.564L242.838 230.434C242.856 230.78 242.594 231.07 242.257 231.08Z" fill="url(#paint36_linear)"/>
<path d="M152.487 223.627L159.084 216.793L168.124 216.353L175.077 222.543L176.528 252.538L169.93 259.242L160.226 259.719L153.947 253.632L152.487 223.627Z" fill="url(#paint37_linear)"/>
<path opacity="0.37" d="M169.93 259.242L168.124 216.353L175.077 222.543L176.528 252.538L169.93 259.242Z" fill="white"/>
<path d="M254.507 218.373L247.283 212.202L238.252 212.641L231.926 219.467L233.377 249.462L240.592 255.502L250.287 255.035L255.957 248.377L254.507 218.373Z" fill="url(#paint38_linear)"/>
<path opacity="0.37" d="M240.592 255.502L238.252 212.641L231.926 219.467L233.377 249.462L240.592 255.502Z" fill="white"/>
</g>
</g>
<defs>
<linearGradient id="paint0_linear" x1="293.807" y1="338.031" x2="61.6082" y2="49.416" gradientUnits="userSpaceOnUse">
<stop stop-color="#B37CFF"/>
<stop offset="1" stop-color="#F895E7"/>
</linearGradient>
<linearGradient id="paint1_linear" x1="142.878" y1="-25.486" x2="25.2703" y2="256.748" gradientUnits="userSpaceOnUse">
<stop stop-color="#CE1567"/>
<stop offset="1" stop-color="#7A1DBC"/>
</linearGradient>
<linearGradient id="paint2_linear" x1="23.5282" y1="102.218" x2="110.9" y2="117.558" gradientUnits="userSpaceOnUse">
<stop stop-color="#41A362"/>
<stop offset="1" stop-color="#204F2E"/>
</linearGradient>
<linearGradient id="paint3_linear" x1="50.5589" y1="122.481" x2="101.855" y2="131.487" gradientUnits="userSpaceOnUse">
<stop stop-color="#41A362"/>
<stop offset="1" stop-color="#204F2E"/>
</linearGradient>
<linearGradient id="paint4_linear" x1="-7.18658" y1="138.328" x2="112.756" y2="159.387" gradientUnits="userSpaceOnUse">
<stop stop-color="#41A362"/>
<stop offset="1" stop-color="#204F2E"/>
</linearGradient>
<linearGradient id="paint5_linear" x1="20.1088" y1="153.892" x2="107.355" y2="169.211" gradientUnits="userSpaceOnUse">
<stop stop-color="#41A362"/>
<stop offset="1" stop-color="#204F2E"/>
</linearGradient>
<linearGradient id="paint6_linear" x1="210.706" y1="129.539" x2="243.764" y2="73.9278" gradientUnits="userSpaceOnUse">
<stop stop-color="#CE1567"/>
<stop offset="1" stop-color="#7A1DBC"/>
</linearGradient>
<linearGradient id="paint7_linear" x1="225.017" y1="33.4221" x2="20.5635" y2="304.375" gradientUnits="userSpaceOnUse">
<stop stop-color="#2B3582"/>
<stop offset="1" stop-color="#150E42"/>
</linearGradient>
<linearGradient id="paint8_linear" x1="189.812" y1="31.497" x2="92.3513" y2="258.537" gradientUnits="userSpaceOnUse">
<stop stop-color="#53D8FF"/>
<stop offset="1" stop-color="#3840F7"/>
</linearGradient>
<linearGradient id="paint9_linear" x1="104.158" y1="76.8672" x2="83.146" y2="113.083" gradientUnits="userSpaceOnUse">
<stop stop-color="#A737D5"/>
<stop offset="1" stop-color="#EF497A"/>
</linearGradient>
<linearGradient id="paint10_linear" x1="168.58" y1="-12.2279" x2="98.5543" y2="57.9126" gradientUnits="userSpaceOnUse">
<stop stop-color="#2B3582"/>
<stop offset="1" stop-color="#150E42"/>
</linearGradient>
<linearGradient id="paint11_linear" x1="171.269" y1="-10.3569" x2="111.943" y2="68.3858" gradientUnits="userSpaceOnUse">
<stop stop-color="#2B3582"/>
<stop offset="1" stop-color="#150E42"/>
</linearGradient>
<linearGradient id="paint12_linear" x1="163.766" y1="-5.52835" x2="122.895" y2="70.2836" gradientUnits="userSpaceOnUse">
<stop stop-color="#53D8FF"/>
<stop offset="1" stop-color="#3840F7"/>
</linearGradient>
<linearGradient id="paint13_linear" x1="263.208" y1="-175.291" x2="61.3403" y2="309.15" gradientUnits="userSpaceOnUse">
<stop stop-color="#A737D5"/>
<stop offset="1" stop-color="#EF497A"/>
</linearGradient>
<linearGradient id="paint14_linear" x1="33.0408" y1="236.891" x2="8.88943" y2="198.921" gradientUnits="userSpaceOnUse">
<stop stop-color="#2B3582"/>
<stop offset="1" stop-color="#150E42"/>
</linearGradient>
<linearGradient id="paint15_linear" x1="26.5444" y1="232.96" x2="39.898" y2="202.812" gradientUnits="userSpaceOnUse">
<stop stop-color="#8D55D1"/>
<stop offset="0.9964" stop-color="#1C2873"/>
</linearGradient>
<linearGradient id="paint16_linear" x1="37.4136" y1="224.979" x2="31.5862" y2="224.979" gradientUnits="userSpaceOnUse">
<stop stop-color="#F9B776"/>
<stop offset="1" stop-color="#F47960"/>
</linearGradient>
<linearGradient id="paint17_linear" x1="126.397" y1="247.243" x2="103.838" y2="286.178" gradientUnits="userSpaceOnUse">
<stop stop-color="#2B3582"/>
<stop offset="1" stop-color="#150E42"/>
</linearGradient>
<linearGradient id="paint18_linear" x1="125.896" y1="254.814" x2="92.9615" y2="256.832" gradientUnits="userSpaceOnUse">
<stop stop-color="#8D55D1"/>
<stop offset="0.9964" stop-color="#1C2873"/>
</linearGradient>
<linearGradient id="paint19_linear" x1="113.801" y1="248.848" x2="116.481" y2="254.018" gradientUnits="userSpaceOnUse">
<stop stop-color="#F9B776"/>
<stop offset="1" stop-color="#F47960"/>
</linearGradient>
<linearGradient id="paint20_linear" x1="55.3989" y1="237.548" x2="66.506" y2="199.568" gradientUnits="userSpaceOnUse">
<stop stop-color="#2B3582"/>
<stop offset="1" stop-color="#150E42"/>
</linearGradient>
<linearGradient id="paint21_linear" x1="118.333" y1="219.9" x2="59.4257" y2="219.9" gradientUnits="userSpaceOnUse">
<stop stop-color="#2B3582"/>
<stop offset="1" stop-color="#150E42"/>
</linearGradient>
<linearGradient id="paint22_linear" x1="86.9107" y1="163.986" x2="118.71" y2="178.269" gradientUnits="userSpaceOnUse">
<stop stop-color="#F9B776"/>
<stop offset="1" stop-color="#F47960"/>
</linearGradient>
<linearGradient id="paint23_linear" x1="75.4914" y1="162.816" x2="82.4982" y2="141.628" gradientUnits="userSpaceOnUse">
<stop stop-color="#F9B776"/>
<stop offset="1" stop-color="#F47960"/>
</linearGradient>
<linearGradient id="paint24_linear" x1="91.6183" y1="146.952" x2="59.7308" y2="227.22" gradientUnits="userSpaceOnUse">
<stop stop-color="#FDF53F"/>
<stop offset="1" stop-color="#D93C65"/>
</linearGradient>
<linearGradient id="paint25_linear" x1="94.3879" y1="126.045" x2="70.6098" y2="128.587" gradientUnits="userSpaceOnUse">
<stop stop-color="#2B3582"/>
<stop offset="1" stop-color="#150E42"/>
</linearGradient>
<linearGradient id="paint26_linear" x1="86.2673" y1="130.559" x2="77.0396" y2="169.704" gradientUnits="userSpaceOnUse">
<stop stop-color="#F9B776"/>
<stop offset="1" stop-color="#F47960"/>
</linearGradient>
<linearGradient id="paint27_linear" x1="68.9666" y1="144.135" x2="38.99" y2="219.593" gradientUnits="userSpaceOnUse">
<stop stop-color="#F9B776"/>
<stop offset="1" stop-color="#F47960"/>
</linearGradient>
<linearGradient id="paint28_linear" x1="116.756" y1="171.203" x2="113.905" y2="171.203" gradientUnits="userSpaceOnUse">
<stop stop-color="#F9B776"/>
<stop offset="1" stop-color="#F47960"/>
</linearGradient>
<linearGradient id="paint29_linear" x1="69.6468" y1="136.349" x2="63.5213" y2="208.164" gradientUnits="userSpaceOnUse">
<stop stop-color="#FDF53F"/>
<stop offset="1" stop-color="#D93C65"/>
</linearGradient>
<linearGradient id="paint30_linear" x1="164.176" y1="191.107" x2="229.831" y2="287.267" gradientUnits="userSpaceOnUse">
<stop stop-color="#FDF53F"/>
<stop offset="1" stop-color="#D93C65"/>
</linearGradient>
<linearGradient id="paint31_linear" x1="182.67" y1="163.558" x2="169.398" y2="180.261" gradientUnits="userSpaceOnUse">
<stop stop-color="#FDF53F"/>
<stop offset="1" stop-color="#D93C65"/>
</linearGradient>
<linearGradient id="paint32_linear" x1="169.768" y1="156.914" x2="209.005" y2="156.914" gradientUnits="userSpaceOnUse">
<stop stop-color="#152C19"/>
<stop offset="0.9964" stop-color="#397851"/>
</linearGradient>
<linearGradient id="paint33_linear" x1="161.214" y1="166.215" x2="174.804" y2="166.215" gradientUnits="userSpaceOnUse">
<stop stop-color="#E40045"/>
<stop offset="1" stop-color="#5C0E16"/>
</linearGradient>
<linearGradient id="paint34_linear" x1="179.591" y1="202.617" x2="240.858" y2="274.773" gradientUnits="userSpaceOnUse">
<stop stop-color="#CB236D"/>
<stop offset="1" stop-color="#4C246D"/>
</linearGradient>
<linearGradient id="paint35_linear" x1="173.421" y1="232.354" x2="242.772" y2="228.998" gradientUnits="userSpaceOnUse">
<stop stop-color="#1A1A1A"/>
<stop offset="0.7667" stop-color="#686868"/>
<stop offset="0.9704" stop-color="#808080"/>
<stop offset="0.9974" stop-color="#808080"/>
</linearGradient>
<linearGradient id="paint36_linear" x1="173.421" y1="232.354" x2="242.772" y2="228.998" gradientUnits="userSpaceOnUse">
<stop stop-color="white"/>
<stop offset="0.7667" stop-color="white"/>
<stop offset="0.9704" stop-color="white"/>
<stop offset="0.9974" stop-color="white"/>
</linearGradient>
<linearGradient id="paint37_linear" x1="819.205" y1="336.332" x2="955.903" y2="356.88" gradientUnits="userSpaceOnUse">
<stop stop-color="#CB236D"/>
<stop offset="1" stop-color="#4C246D"/>
</linearGradient>
<linearGradient id="paint38_linear" x1="235.869" y1="222.036" x2="305.393" y2="324.531" gradientUnits="userSpaceOnUse">
<stop stop-color="#CB236D"/>
<stop offset="1" stop-color="#4C246D"/>
</linearGradient>
<clipPath id="clip0">
<rect width="260" height="261" fill="white"/>
</clipPath>
</defs>
</svg>
