<svg width="21" height="21" viewBox="0 0 21 21" fill="none" xmlns="http://www.w3.org/2000/svg">
<g clip-path="url(#clip0)">
<path d="M0.134501 10.8277L6.95011 18.1193C7.07542 18.2537 7.30245 18.2537 7.42776 18.1193L9.27876 16.1391C9.40509 16.0041 9.40478 15.7884 9.2781 15.6537L6.14113 12.3214L19.7067 12.3214C19.8907 12.3214 20.04 12.1659 20.04 11.9742L20.04 9.19646C20.04 9.00482 19.8907 8.84926 19.7067 8.84926L6.14113 8.84926L9.2781 5.51701C9.40478 5.38228 9.40509 5.16667 9.27877 5.03158L7.42776 3.05137C7.36511 2.98435 7.27909 2.94651 7.18909 2.94651C7.0991 2.94651 7.01308 2.98435 6.95011 3.05137L0.134501 10.343C0.00848647 10.4781 0.00848645 10.693 0.134501 10.8277Z" fill="#000"/>
</g>
<defs>
<clipPath id="clip0">
<rect width="20" height="20.8333" fill="white" transform="translate(20.04 21) rotate(-180)"/>
</clipPath>
</defs>
</svg>
