<svg width="49" height="49" viewBox="0 0 49 49" fill="none" xmlns="http://www.w3.org/2000/svg">
<path d="M38.8555 31.7734C36.0192 31.7734 33.4991 33.1518 31.9287 35.2734L18.4087 28.3641C18.6355 27.5935 18.7578 26.7786 18.7578 25.9355C18.7578 24.7937 18.534 23.7034 18.1287 22.7053L32.2985 14.1917C33.8795 16.0474 36.2322 17.2266 38.8555 17.2266C43.6048 17.2266 47.4688 13.3626 47.4688 8.61328C47.4688 3.86392 43.6048 0 38.8555 0C34.1061 0 30.2422 3.86392 30.2422 8.61328C30.2422 9.711 30.449 10.7611 30.825 11.7275L16.6198 20.2623C15.0399 18.4613 12.7229 17.3223 10.1445 17.3223C5.39517 17.3223 1.53125 21.1862 1.53125 25.9355C1.53125 30.6849 5.39517 34.5488 10.1445 34.5488C13.0273 34.5488 15.5835 33.1251 17.1478 30.9441L30.6285 37.8333C30.3775 38.6404 30.2422 39.498 30.2422 40.3867C30.2422 45.1361 34.1061 49 38.8555 49C43.6048 49 47.4688 45.1361 47.4688 40.3867C47.4688 35.6374 43.6048 31.7734 38.8555 31.7734ZM38.8555 2.87109C42.0217 2.87109 44.5977 5.44704 44.5977 8.61328C44.5977 11.7795 42.0217 14.3555 38.8555 14.3555C35.6892 14.3555 33.1133 11.7795 33.1133 8.61328C33.1133 5.44704 35.6892 2.87109 38.8555 2.87109ZM10.1445 31.6777C6.97829 31.6777 4.40234 29.1018 4.40234 25.9355C4.40234 22.7693 6.97829 20.1934 10.1445 20.1934C13.3108 20.1934 15.8867 22.7693 15.8867 25.9355C15.8867 29.1018 13.3108 31.6777 10.1445 31.6777ZM38.8555 46.1289C35.6892 46.1289 33.1133 43.553 33.1133 40.3867C33.1133 37.2205 35.6892 34.6445 38.8555 34.6445C42.0217 34.6445 44.5977 37.2205 44.5977 40.3867C44.5977 43.553 42.0217 46.1289 38.8555 46.1289Z" fill="#E76C54"/>
</svg>
