<svg height="480pt" viewBox="0 0 480.05481 480" width="480pt" xmlns="http://www.w3.org/2000/svg"><path d="m131.75 328.828125c-7.824219 3.894531-17.023438 3.894531-24.847656 0-3.953125-1.976563-8.761719-.371094-10.734375 3.582031-1.976563 3.957032-.371094 8.761719 3.582031 10.738282 12.332031 6.132812 26.824219 6.132812 39.152344 0 3.953125-1.976563 5.558594-6.78125 3.585937-10.738282-1.976562-3.953125-6.78125-5.558594-10.738281-3.582031zm0 0"/><path d="m472.054688 39.988281h-144v-15.960937c-.035157-13.253906-10.785157-23.9882815-24.039063-24.0000002h-6.59375c-13.253906.0351562-23.984375 10.7851562-24 24.0390622v15.921875h-121.367187c-4.417969 0-8 3.582031-8 8v24h-16c-4.417969 0-8 3.582031-8 8v215.6875c-2.257813.722657-4.59375 1.164063-6.960938 1.304688-7.734375-15.128907-9.558594-32.59375-5.109375-48.992188l6.160156-22.769531c1-4.207031-1.523437-8.445312-5.699219-9.574219-4.175781-1.125-8.488281 1.269531-9.742187 5.40625l-4.296875 15.855469-3.328125-8.351562c-8.4375-21.015626-27.3125-36.042969-49.6875-39.550782l-32.121094-4.953125c-2.996093-.460937-6 .8125-7.75 3.289063-1.75 2.480468-1.949219 5.734375-.511719 8.40625l17.503907 32.511718c8.320312 15.40625 22.5625 26.746094 39.4375 31.410157l31.679687 8.679687c.222656 7.457032 1.433594 14.847656 3.609375 21.984375-.375-.335937-.800781-.585937-1.160156-.9375l-2.296875-2.296875c-9.679688-9.714844-22.84375-15.15625-36.558594-15.109375-25.695312.097657-47.457031 18.964844-51.199218 44.382813-7.191407 49.875 4.933593 100.613281 33.894531 141.847656l3.496093 4.976562c7.230469 10.335938 18.980469 16.578126 31.589844 16.785157 12.613282.210937 24.5625-5.640625 32.132813-15.730469l1.789062-2.398438c1.566407-1.929687 3.917969-3.050781 6.402344-3.050781s4.835937 1.121094 6.398437 3.050781l1.800782 2.398438c7.449218 9.886719 19.101562 15.710938 31.480468 15.738281h321.046876c4.417968 0 8-3.582031 8-8v-424c0-4.417969-3.582032-8-8-8zm-182.664063-15.960937c0-4.417969 3.582031-8 8-8h6.59375c4.421875.003906 8.011719 3.578125 8.039063 8v15.960937h-22.632813zm-8 32h70.664063v24c0 4.417968-3.582032 8-8 8h-80c-4.417969 0-8-3.582032-8-8v-24.039063zm-121.335937-.039063h80v16h-80zm-97.871094 188.269531c-12.664063-3.480468-23.359375-11.984374-29.601563-23.542968l-9.886719-18.398438 16.230469 2.503906c16.78125 2.636719 30.941407 13.902344 37.28125 29.664063l6.078125 15.269531zm70.136718 210.402344-1.792968-2.402344c-4.53125-6.042968-11.644532-9.597656-19.199219-9.597656s-14.667969 3.554688-19.203125 9.597656l-1.796875 2.402344c-4.492187 5.988282-11.582031 9.460938-19.066406 9.335938-7.480469-.121094-14.453125-3.828125-18.742188-9.960938l-3.496093-4.976562c-26.617188-37.910156-37.757813-84.550782-31.144532-130.398438 2.574219-17.558594 17.597656-30.59375 35.34375-30.671875 9.46875-.023437 18.554688 3.738281 25.230469 10.457031l2.296875 2.292969c13.027344 13.179688 33.070312 16.441407 49.601562 8.066407 1.011719-.300782 1.949219-.804688 2.757813-1.480469 3.207031-1.808594 6.164063-4.019531 8.800781-6.585938l2.304688-2.292969c6.671875-6.714843 15.75-10.480468 25.214844-10.457031 17.734374.078125 32.75 13.101563 35.335937 30.648438 6.617187 45.847656-4.523437 92.488281-31.144531 130.398437l-3.484375 4.992188c-4.292969 6.132812-11.269531 9.835937-18.753907 9.957031-7.484374.121094-14.574218-3.351563-19.0625-9.339844zm96.238282-83.152344c4.667968 4.707032 4.667968 12.292969 0 17-3.113282 2.882813-7.472656 3.988282-11.582032 2.9375 1.828126-7.644531 3.195313-15.394531 4.09375-23.203124 2.789063.210937 5.429688 1.355468 7.488282 3.25zm-11.839844-68.136718c-2.101562-4.90625-4.957031-9.457032-8.457031-13.488282.417969-2.417968 1.570312-4.652343 3.296875-6.398437 4.792968-4.453125 12.207031-4.453125 17 0 4.667968 4.703125 4.667968 12.292969 0 17-3.183594 2.9375-7.660156 4.023437-11.839844 2.871094zm-34.097656 160.617187c.203125-.273437.425781-.503906.617187-.800781l3.496094-4.984375c11.039063-15.773437 19.71875-33.074219 25.769531-51.351563 12.226563 3.386719 25.207032-1.871093 31.625-12.820312 6.421875-10.945312 4.675782-24.839844-4.25-33.859375-4.75-4.5625-10.914062-7.371094-17.472656-7.953125.394531-10.796875-.097656-21.609375-1.464844-32.328125 11.136719-.367187 20.992188-7.300781 25.101563-17.65625s1.6875-22.160156-6.164063-30.0625c-11.164062-10.398437-28.46875-10.398437-39.632812 0-1.976563 2.042969-3.625 4.382813-4.878906 6.933594-18.839844-11.117188-42.664063-9.054688-59.3125 5.136719v-196.253907h105.472656c3.378906 9.554688 12.394531 15.957031 22.527344 16h80c10.132812-.042969 19.148437-6.445312 22.527343-16h65.472657v376zm281.433594 0h-16v-384c0-4.417969-3.582032-8-8-8h-72v-16h96zm0 0"/><path d="m220.054688 175.988281c-15.464844 0-28 12.535157-28 28 0 15.464844 12.535156 28 28 28 15.464843 0 28-12.535156 28-28 0-15.464843-12.535157-28-28-28zm0 40c-6.628907 0-12-5.375-12-12 0-6.628906 5.371093-12 12-12 6.628906 0 12 5.371094 12 12 0 6.625-5.371094 12-12 12zm0 0"/><path d="m264.054688 131.988281h88v16h-88zm0 0"/><path d="m264.054688 191.988281h120v16h-120zm0 0"/><path d="m400.054688 191.988281h16v16h-16zm0 0"/><path d="m264.054688 279.988281h120v16h-120zm0 0"/><path d="m400.054688 279.988281h16v16h-16zm0 0"/><path d="m264.054688 367.988281h120v16h-120zm0 0"/><path d="m400.054688 367.988281h16v16h-16zm0 0"/><path d="m272.054688 431.988281h16v16h-16zm0 0"/><path d="m304.054688 431.988281h16v16h-16zm0 0"/><path d="m336.054688 431.988281h16v16h-16zm0 0"/><path d="m408.054688 103.988281h-24v16h16v16h16v-24c0-4.417969-3.582032-8-8-8zm0 0"/><path d="m208.054688 103.988281h16v16h-16zm0 0"/><path d="m176.054688 103.988281h16v16h-16zm0 0"/><path d="m400.054688 431.988281h-16v16h24c4.417968 0 8-3.582031 8-8v-24h-16zm0 0"/></svg>